<svg width="74" height="73" viewBox="0 0 74 73" fill="none" xmlns="http://www.w3.org/2000/svg">
<circle cx="36.8999" cy="36.2573" r="36.2573" fill="#2118CD"/>
<path d="M36.8997 38.6137C36.1822 38.6053 35.4793 38.8169 34.8857 39.2201C34.2921 39.6232 33.8363 40.1985 33.5796 40.8686C33.3228 41.5386 33.2776 42.2713 33.4498 42.9678C33.622 43.6644 34.0035 44.2915 34.543 44.7647V48.0406C34.543 48.6656 34.7913 49.265 35.2332 49.707C35.6752 50.149 36.2746 50.3973 36.8997 50.3973C37.5247 50.3973 38.1242 50.149 38.5661 49.707C39.0081 49.265 39.2564 48.6656 39.2564 48.0406V44.7647C39.7958 44.2915 40.1773 43.6644 40.3496 42.9678C40.5218 42.2713 40.4765 41.5386 40.2198 40.8686C39.9631 40.1985 39.5072 39.6232 38.9136 39.2201C38.3201 38.8169 37.6172 38.6053 36.8997 38.6137ZM48.6833 29.1868V24.4733C48.6833 21.3481 47.4418 18.3509 45.232 16.141C43.0221 13.9312 40.0249 12.6897 36.8997 12.6897C33.7745 12.6897 30.7773 13.9312 28.5674 16.141C26.3576 18.3509 25.1161 21.3481 25.1161 24.4733V29.1868C23.2409 29.1868 21.4426 29.9317 20.1167 31.2576C18.7908 32.5835 18.0459 34.3818 18.0459 36.2569V52.754C18.0459 54.6291 18.7908 56.4275 20.1167 57.7534C21.4426 59.0793 23.2409 59.8242 25.1161 59.8242H48.6833C50.5584 59.8242 52.3568 59.0793 53.6827 57.7534C55.0086 56.4275 55.7535 54.6291 55.7535 52.754V36.2569C55.7535 34.3818 55.0086 32.5835 53.6827 31.2576C52.3568 29.9317 50.5584 29.1868 48.6833 29.1868ZM29.8295 24.4733C29.8295 22.5982 30.5744 20.7999 31.9003 19.474C33.2262 18.148 35.0246 17.4031 36.8997 17.4031C38.7748 17.4031 40.5731 18.148 41.8991 19.474C43.225 20.7999 43.9699 22.5982 43.9699 24.4733V29.1868H29.8295V24.4733ZM51.04 52.754C51.04 53.379 50.7917 53.9785 50.3498 54.4205C49.9078 54.8624 49.3084 55.1107 48.6833 55.1107H25.1161C24.491 55.1107 23.8916 54.8624 23.4496 54.4205C23.0076 53.9785 22.7593 53.379 22.7593 52.754V36.2569C22.7593 35.6319 23.0076 35.0325 23.4496 34.5905C23.8916 34.1485 24.491 33.9002 25.1161 33.9002H48.6833C49.3084 33.9002 49.9078 34.1485 50.3498 34.5905C50.7917 35.0325 51.04 35.6319 51.04 36.2569V52.754Z" fill="white"/>
</svg>
