<svg xmlns="http://www.w3.org/2000/svg" xmlns:xlink="http://www.w3.org/1999/xlink" width="1920" zoomAndPan="magnify" viewBox="0 0 1440 809.999993" height="1080" preserveAspectRatio="xMidYMid meet" version="1.0"><defs><g/></defs><g fill="#2118cd" fill-opacity="1"><g transform="translate(253.706772, 445.988788)"><g/></g></g><g fill="#2118cd" fill-opacity="1"><g transform="translate(287.628924, 445.988788)"><g/></g></g><g fill="#2118cd" fill-opacity="1"><g transform="translate(321.551077, 445.988788)"><g/></g></g><g fill="#2118cd" fill-opacity="1"><g transform="translate(355.473229, 445.988788)"><g/></g></g><g fill="#2118cd" fill-opacity="1"><g transform="translate(389.395382, 445.988788)"><g/></g></g><g fill="#2118cd" fill-opacity="1"><g transform="translate(423.321567, 445.988788)"><g><path d="M 24.65625 -88.71875 L 24.65625 -88.65625 C 24.46875 -88.71875 24.265625 -88.71875 24 -88.71875 L 9.65625 -88.71875 C 7.953125 -88.71875 7.046875 -87.8125 7.046875 -86.109375 L 7.046875 2.609375 C 18.390625 1.3125 26.609375 -8.34375 26.609375 -24.65625 L 26.609375 -31.703125 L 36.53125 -31.703125 C 59.625 -31.703125 68.5 -42.40625 68.5 -60.28125 C 68.5 -77.375 59.625 -88.71875 36.53125 -88.71875 Z M 26.609375 -48.40625 L 26.609375 -71.765625 L 34.578125 -71.765625 C 38.75 -71.765625 48.921875 -71.890625 48.921875 -60.28125 C 48.921875 -48.53125 38.625 -48.40625 34.578125 -48.40625 Z M 26.609375 -48.40625 "/></g></g></g><g fill="#2118cd" fill-opacity="1"><g transform="translate(494.297118, 445.988788)"><g><path d="M 51.015625 -86.625 C 50.484375 -87.9375 49.453125 -88.71875 48.015625 -88.71875 L 35.875 -88.71875 C 34.4375 -88.71875 33.40625 -87.9375 32.875 -86.625 L -0.78125 2.609375 C 14.09375 0 25.375 -8.671875 31.640625 -28.90625 C 34.578125 -22.3125 41.484375 -17.875 52.0625 -17.875 L 56.8125 -17.875 L 61.96875 -2.09375 C 62.5 -0.515625 63.40625 0 64.84375 0 L 80.375 0 C 81.796875 0 82.71875 -0.78125 82.71875 -1.953125 C 82.71875 -2.21875 82.59375 -2.609375 82.453125 -3 Z M 42.015625 -62.890625 L 51.53125 -33.921875 L 33.203125 -33.921875 Z M 42.015625 -62.890625 "/></g></g></g><g fill="#2118cd" fill-opacity="1"><g transform="translate(577.53682, 445.988788)"><g><path d="M 24.65625 -88.71875 L 24.65625 -88.65625 C 24.46875 -88.71875 24.265625 -88.71875 24 -88.71875 L 9.65625 -88.71875 C 7.953125 -88.71875 7.046875 -87.8125 7.046875 -86.109375 L 7.046875 2.609375 C 18.390625 1.3125 26.609375 -8.34375 26.609375 -24.65625 L 26.609375 -31.703125 L 36.53125 -31.703125 C 59.625 -31.703125 68.5 -42.40625 68.5 -60.28125 C 68.5 -77.375 59.625 -88.71875 36.53125 -88.71875 Z M 26.609375 -48.40625 L 26.609375 -71.765625 L 34.578125 -71.765625 C 38.75 -71.765625 48.921875 -71.890625 48.921875 -60.28125 C 48.921875 -48.53125 38.625 -48.40625 34.578125 -48.40625 Z M 26.609375 -48.40625 "/></g></g></g><g fill="#2118cd" fill-opacity="1"><g transform="translate(648.512371, 445.988788)"><g><path d="M 45.796875 -70.96875 C 47.484375 -70.96875 48.40625 -71.890625 48.40625 -73.578125 L 48.40625 -86.109375 C 48.40625 -87.8125 47.484375 -88.71875 45.796875 -88.71875 L 6.125 -88.71875 C 4.4375 -88.71875 3.515625 -87.8125 3.515625 -86.109375 L 3.515625 -73.578125 C 3.515625 -71.890625 4.4375 -70.96875 6.125 -70.96875 L 30.46875 -70.96875 C 21.921875 -67.640625 16.171875 -58.640625 16.171875 -45.015625 L 16.171875 -17.75 L 6.125 -17.75 C 4.4375 -17.75 3.515625 -16.828125 3.515625 -15.140625 L 3.515625 -2.609375 C 3.515625 -0.90625 4.4375 0 6.125 0 L 45.796875 0 C 47.484375 0 48.40625 -0.90625 48.40625 -2.609375 L 48.40625 -15.140625 C 48.40625 -16.828125 47.484375 -17.75 45.796875 -17.75 L 35.75 -17.75 L 35.75 -70.96875 Z M 45.796875 -70.96875 "/></g></g></g><g fill="#2118cd" fill-opacity="1"><g transform="translate(700.43935, 445.988788)"><g><path d="M 64.578125 -16.171875 C 57.203125 -26.484375 48.59375 -32.09375 39.46875 -34.375 C 60.34375 -35.234375 68.5 -45.34375 68.5 -60.921875 C 68.5 -78.015625 59.625 -88.71875 36.53125 -88.71875 L 24.65625 -88.71875 L 24.65625 -88.65625 C 24.46875 -88.71875 24.265625 -88.71875 24 -88.71875 L 9.65625 -88.71875 C 7.953125 -88.71875 7.046875 -87.8125 7.046875 -86.109375 L 7.046875 2.609375 C 18.390625 1.3125 26.609375 -8.34375 26.609375 -24.65625 L 26.609375 -34.3125 L 27.53125 -34.3125 L 50.484375 -1.703125 C 51.40625 -0.515625 52.3125 0 53.625 0 L 72.15625 0 C 73.578125 0 74.375 -0.65625 74.375 -1.703125 C 74.375 -2.09375 74.234375 -2.609375 73.84375 -3.125 Z M 48.921875 -60.28125 C 48.921875 -48.53125 38.625 -48.40625 34.578125 -48.40625 L 26.609375 -48.40625 L 26.609375 -71.765625 L 34.578125 -71.765625 C 38.75 -71.765625 48.921875 -71.890625 48.921875 -60.28125 Z M 48.921875 -60.28125 "/></g></g></g><g fill="#2118cd" fill-opacity="1"><g transform="translate(775.720407, 445.988788)"><g><path d="M 51.015625 -86.625 C 50.484375 -87.9375 49.453125 -88.71875 48.015625 -88.71875 L 35.875 -88.71875 C 34.4375 -88.71875 33.40625 -87.9375 32.875 -86.625 L -0.78125 2.609375 C 14.09375 0 25.375 -8.671875 31.640625 -28.90625 C 34.578125 -22.3125 41.484375 -17.875 52.0625 -17.875 L 56.8125 -17.875 L 61.96875 -2.09375 C 62.5 -0.515625 63.40625 0 64.84375 0 L 80.375 0 C 81.796875 0 82.71875 -0.78125 82.71875 -1.953125 C 82.71875 -2.21875 82.59375 -2.609375 82.453125 -3 Z M 42.015625 -62.890625 L 51.53125 -33.921875 L 33.203125 -33.921875 Z M 42.015625 -62.890625 "/></g></g></g><g fill="#2118cd" fill-opacity="1"><g transform="translate(858.96011, 445.988788)"><g><path d="M 7.171875 2.609375 C 18.53125 0 26.75 -8.34375 26.75 -28.578125 L 26.75 -42.40625 C 26.75 -51.140625 25.046875 -54.921875 22.828125 -59.625 L 23.359375 -60.015625 L 62.625 -1.703125 C 63.40625 -0.515625 64.453125 0 65.75 0 L 79.453125 0 C 81.15625 0 82.0625 -0.90625 82.0625 -2.609375 L 82.0625 -91.328125 C 70.71875 -88.71875 62.5 -80.375 62.5 -60.140625 L 62.5 -46.3125 C 62.5 -37.578125 64.1875 -33.796875 66.40625 -29.09375 L 65.890625 -28.703125 L 26.609375 -87.015625 C 25.828125 -88.203125 24.796875 -88.71875 23.484375 -88.71875 L 9.78125 -88.71875 C 8.09375 -88.71875 7.171875 -87.8125 7.171875 -86.109375 Z M 7.171875 2.609375 "/></g></g></g><g fill="#2118cd" fill-opacity="1"><g transform="translate(948.331907, 445.988788)"><g><path d="M 30.796875 0 C 63.796875 0 78.796875 -19.3125 78.796875 -44.359375 C 78.796875 -69.40625 63.671875 -88.71875 30.796875 -88.71875 L 9.65625 -88.71875 C 7.953125 -88.71875 7.046875 -87.8125 7.046875 -86.109375 L 7.046875 -2.609375 C 7.046875 -0.90625 7.953125 0 9.65625 0 Z M 26.609375 -70.96875 L 32.625 -70.96875 C 51.671875 -70.96875 59.234375 -59.109375 59.234375 -44.359375 C 59.234375 -29.609375 51.53125 -17.75 32.625 -17.75 L 26.609375 -17.75 Z M 26.609375 -70.96875 "/></g></g></g><g fill="#2118cd" fill-opacity="1"><g transform="translate(1030.658334, 445.988788)"><g><path d="M 49.0625 1.3125 C 76.453125 1.3125 94.71875 -16.4375 94.71875 -44.484375 C 94.71875 -72.28125 76.984375 -90.03125 49.1875 -90.03125 C 21.78125 -90.03125 3.515625 -72.671875 3.515625 -44.625 C 3.515625 -16.96875 21.265625 1.3125 49.0625 1.3125 Z M 49.0625 -16.4375 C 34.703125 -16.4375 23.09375 -26.875 23.09375 -44.625 C 23.09375 -62.234375 34.703125 -72.28125 49.0625 -72.28125 C 63.671875 -72.28125 75.15625 -62.109375 75.15625 -44.625 C 75.15625 -26.875 63.671875 -16.4375 49.0625 -16.4375 Z M 49.0625 -16.4375 "/></g></g></g><g fill="#2118cd" fill-opacity="1"><g transform="translate(1128.902015, 445.988788)"><g><path d="M 29.359375 -86.109375 C 29.359375 -87.8125 28.4375 -88.71875 26.75 -88.71875 L 12.390625 -88.71875 C 10.703125 -88.71875 9.78125 -87.8125 9.78125 -86.109375 L 9.78125 -55.0625 C 9.78125 -38.75 18 -29.09375 29.359375 -27.796875 Z M 19.578125 1.3125 C 26.609375 1.3125 33.921875 -2.21875 33.921875 -9.265625 C 33.921875 -16.171875 26.609375 -19.828125 19.578125 -19.828125 C 12.390625 -19.828125 5.21875 -16.171875 5.21875 -9.265625 C 5.21875 -2.21875 12.390625 1.3125 19.578125 1.3125 Z M 19.578125 1.3125 "/></g></g></g><g fill="#004aad" fill-opacity="1"><g transform="translate(1002.923762, 469.63238)"><g><path d="M -27.921875 14.875 C -27.921875 16.171875 -27.40625 17.21875 -26.21875 17.875 C -14.359375 25.3125 9.265625 32.359375 34.96875 32.359375 C 61.0625 32.359375 84.671875 25.3125 96.28125 17.875 C 97.453125 17.21875 97.859375 16.171875 97.859375 14.875 L 97.859375 2.34375 C 97.859375 0.265625 96.546875 -0.390625 94.71875 0.65625 C 81.9375 8.09375 58.96875 14.875 34.96875 14.875 C 10.171875 14.875 -12.78125 7.953125 -24.921875 0.65625 C -26.609375 -0.390625 -27.921875 0.390625 -27.921875 2.484375 Z M -27.921875 14.875 "/></g></g></g><path stroke-linecap="butt" transform="matrix(0.75, 0, 0, 0.75, -120.260928, 313.875004)" fill="none" stroke-linejoin="miter" d="M 503.301086 61.713543 C 501.051086 61.713543 499.821919 62.901043 499.821919 65.19271 L 499.821919 81.88542 C 499.821919 84.140629 501.051086 85.369796 503.301086 85.369796 L 549.259425 85.369796 C 538.811507 89.786463 531.842756 102.317714 531.842756 118.2448 L 531.842756 176.51564 C 531.842756 178.770848 533.077131 180.000015 535.327131 180.000015 L 554.483384 180.000015 C 556.733384 180.000015 557.920884 178.770848 557.920884 176.51564 L 557.920884 85.369796 L 586.467762 85.369796 C 588.717763 85.369796 589.946929 84.140629 589.946929 81.88542 L 589.946929 65.19271 C 589.946929 62.901043 588.717763 61.713543 586.467762 61.713543 Z M 656.400062 43.874999 C 661.202146 51.859375 672.16048 57.083334 688.426107 58.229168 L 672.582356 35.249998 C 670.50423 32.27604 669.993814 31.08854 667.91048 31.08854 L 644.931311 31.08854 C 642.853185 31.08854 642.301102 32.27604 640.217768 35.249998 L 624.420892 58.229168 C 640.686519 57.083334 651.644853 51.859375 656.400062 43.874999 Z M 656.400062 59.968751 C 619.874016 59.968751 595.535472 83.119796 595.535472 120.4948 C 595.535472 157.406262 619.191724 181.739598 656.228187 181.739598 C 692.759441 181.739598 717.139652 158.083346 717.139652 120.666675 C 717.139652 83.630212 693.478191 59.968751 656.400062 59.968751 Z M 656.228187 158.083346 C 637.11881 158.083346 621.6136 144.151053 621.6136 120.4948 C 621.6136 97.005214 637.11881 83.630212 656.228187 83.630212 C 675.728189 83.630212 691.014649 97.177089 691.014649 120.4948 C 691.014649 144.151053 675.728189 158.083346 656.228187 158.083346 Z M 656.228187 158.083346 " stroke="#2118cd" stroke-width="6.524137" stroke-opacity="1" stroke-miterlimit="4"/></svg>