<svg xmlns="http://www.w3.org/2000/svg" xmlns:xlink="http://www.w3.org/1999/xlink" width="324" zoomAndPan="magnify" viewBox="0 0 242.87999 243.75" height="325" preserveAspectRatio="xMidYMid meet" version="1.0"><defs><g/><clipPath id="cc5d8c5cce"><path d="M 0.0664062 0.386719 L 242.695312 0.386719 L 242.695312 243.136719 L 0.0664062 243.136719 Z M 0.0664062 0.386719 " clip-rule="nonzero"/></clipPath><clipPath id="3a2aa9abb2"><path d="M 38.273438 0.386719 L 204.605469 0.386719 C 214.738281 0.386719 224.457031 4.414062 231.625 11.578125 C 238.789062 18.746094 242.816406 28.464844 242.816406 38.597656 L 242.816406 204.925781 C 242.816406 215.0625 238.789062 224.78125 231.625 231.945312 C 224.457031 239.113281 214.738281 243.136719 204.605469 243.136719 L 38.273438 243.136719 C 28.140625 243.136719 18.421875 239.113281 11.257812 231.945312 C 4.089844 224.78125 0.0664062 215.0625 0.0664062 204.925781 L 0.0664062 38.597656 C 0.0664062 28.464844 4.089844 18.746094 11.257812 11.578125 C 18.421875 4.414062 28.140625 0.386719 38.273438 0.386719 Z M 38.273438 0.386719 " clip-rule="nonzero"/></clipPath><clipPath id="2016657321"><path d="M 0.0664062 30 L 242.695312 30 L 242.695312 34 L 0.0664062 34 Z M 0.0664062 30 " clip-rule="nonzero"/></clipPath><clipPath id="1a603316ec"><path d="M 4.492188 188 L 20 188 L 20 228.761719 L 4.492188 228.761719 Z M 4.492188 188 " clip-rule="nonzero"/></clipPath><clipPath id="94ced5edeb"><path d="M 9 188 L 18 188 L 18 228.761719 L 9 228.761719 Z M 9 188 " clip-rule="nonzero"/></clipPath><clipPath id="e6c361af83"><path d="M 9 201 L 40 201 L 40 228.761719 L 9 228.761719 Z M 9 201 " clip-rule="nonzero"/></clipPath><clipPath id="82d12e10a2"><path d="M 176 36.957031 L 217 36.957031 L 217 95 L 176 95 Z M 176 36.957031 " clip-rule="nonzero"/></clipPath><clipPath id="bcc9916595"><path d="M 52 224 L 63 224 L 63 228.761719 L 52 228.761719 Z M 52 224 " clip-rule="nonzero"/></clipPath><clipPath id="3cbcc8a152"><path d="M 79 224 L 89 224 L 89 228.761719 L 79 228.761719 Z M 79 224 " clip-rule="nonzero"/></clipPath><clipPath id="0c377dc416"><path d="M 133 163 L 242.695312 163 L 242.695312 164 L 133 164 Z M 133 163 " clip-rule="nonzero"/></clipPath><clipPath id="51ad2fc8c8"><path d="M 242 91 L 242.695312 91 L 242.695312 201 L 242 201 Z M 242 91 " clip-rule="nonzero"/></clipPath><clipPath id="7e9700518b"><path d="M 4.492188 228 L 114 228 L 114 228.761719 L 4.492188 228.761719 Z M 4.492188 228 " clip-rule="nonzero"/></clipPath></defs><g clip-path="url(#cc5d8c5cce)"><g clip-path="url(#3a2aa9abb2)"><path fill="#002f6d" d="M 0.0664062 0.386719 L 242.816406 0.386719 L 242.816406 243.136719 L 0.0664062 243.136719 Z M 0.0664062 0.386719 " fill-opacity="1" fill-rule="nonzero"/></g></g><g clip-path="url(#2016657321)"><path stroke-linecap="butt" transform="matrix(0.749232, 0, 0, 0.749232, 0.0644829, 30.962928)" fill="none" stroke-linejoin="miter" d="M 0.00256709 1.999394 L 324.001214 1.999394 " stroke="#ffffff" stroke-width="4" stroke-opacity="1" stroke-miterlimit="4"/></g><g clip-path="url(#1a603316ec)"><path fill="#f0f0f0" d="M 4.804688 206.03125 C 5.75 198.429688 10.453125 190.9375 17.691406 188.464844 C 16.980469 190.40625 16.449219 192.394531 16.089844 194.429688 C 15.730469 196.464844 15.550781 198.515625 15.550781 200.582031 C 15.550781 202.648438 15.730469 204.699219 16.089844 206.734375 C 16.449219 208.769531 16.984375 210.757812 17.691406 212.695312 C 18.804688 215.710938 20.355469 218.945312 19.308594 221.984375 C 18.65625 223.871094 17.066406 225.316406 15.285156 226.222656 C 13.503906 227.125 11.527344 227.558594 9.578125 227.980469 L 9.195312 228.296875 C 6.097656 221.292969 3.859375 213.632812 4.804688 206.03125 Z M 4.804688 206.03125 " fill-opacity="1" fill-rule="nonzero"/></g><g clip-path="url(#94ced5edeb)"><path fill="#ffffff" d="M 17.761719 188.609375 C 15.65625 190.972656 13.960938 193.605469 12.683594 196.507812 C 11.402344 199.40625 10.601562 202.433594 10.273438 205.585938 C 10.109375 206.949219 10.15625 208.304688 10.421875 209.65625 C 10.726562 210.976562 11.339844 212.125 12.273438 213.109375 C 13.105469 214.027344 14.066406 214.871094 14.660156 215.972656 C 14.960938 216.550781 15.132812 217.164062 15.171875 217.8125 C 15.210938 218.460938 15.113281 219.089844 14.882812 219.699219 C 14.359375 221.210938 13.320312 222.445312 12.261719 223.617188 C 11.089844 224.917969 9.847656 226.25 9.347656 227.972656 C 9.289062 228.179688 8.96875 228.074219 9.03125 227.867188 C 9.898438 224.867188 12.804688 223.164062 14.191406 220.464844 C 14.835938 219.203125 15.109375 217.738281 14.5 216.410156 C 13.972656 215.246094 12.984375 214.378906 12.132812 213.457031 C 11.210938 212.511719 10.566406 211.40625 10.195312 210.144531 C 9.863281 208.8125 9.761719 207.464844 9.894531 206.097656 C 10.136719 203.019531 10.847656 200.054688 12.027344 197.203125 C 13.355469 193.9375 15.195312 190.988281 17.539062 188.355469 C 17.683594 188.195312 17.90625 188.449219 17.761719 188.609375 Z M 17.761719 188.609375 " fill-opacity="1" fill-rule="nonzero"/></g><path fill="#ffffff" d="M 10.363281 203.542969 C 9.84375 203.417969 9.363281 203.203125 8.917969 202.90625 C 8.472656 202.605469 8.089844 202.238281 7.777344 201.804688 C 7.460938 201.371094 7.230469 200.894531 7.082031 200.378906 C 6.9375 199.863281 6.886719 199.335938 6.925781 198.800781 C 6.941406 198.585938 7.28125 198.601562 7.261719 198.820312 C 7.222656 199.316406 7.273438 199.808594 7.410156 200.289062 C 7.542969 200.769531 7.761719 201.210938 8.054688 201.613281 C 8.347656 202.019531 8.703125 202.359375 9.117188 202.636719 C 9.535156 202.914062 9.984375 203.109375 10.472656 203.222656 C 10.683594 203.273438 10.574219 203.59375 10.363281 203.542969 Z M 10.363281 203.542969 " fill-opacity="1" fill-rule="nonzero"/><path fill="#ffffff" d="M 11.789062 212.699219 C 12.730469 212.136719 13.535156 211.421875 14.207031 210.554688 C 14.878906 209.6875 15.367188 208.730469 15.675781 207.675781 C 15.738281 207.46875 16.058594 207.574219 15.996094 207.78125 C 15.671875 208.878906 15.160156 209.875 14.460938 210.777344 C 13.761719 211.675781 12.917969 212.417969 11.941406 213.003906 C 11.753906 213.113281 11.601562 212.8125 11.789062 212.699219 Z M 11.789062 212.699219 " fill-opacity="1" fill-rule="nonzero"/><path fill="#ffffff" d="M 13.660156 194.28125 C 14.046875 194.464844 14.457031 194.546875 14.886719 194.523438 C 15.316406 194.503906 15.714844 194.378906 16.085938 194.15625 C 16.269531 194.042969 16.417969 194.347656 16.234375 194.457031 C 15.828125 194.703125 15.386719 194.839844 14.914062 194.863281 C 14.4375 194.890625 13.984375 194.800781 13.554688 194.601562 C 13.453125 194.5625 13.417969 194.492188 13.445312 194.386719 C 13.484375 194.28125 13.554688 194.246094 13.660156 194.28125 Z M 13.660156 194.28125 " fill-opacity="1" fill-rule="nonzero"/><g clip-path="url(#e6c361af83)"><path fill="#f0f0f0" d="M 39.753906 202.042969 C 39.640625 202.117188 39.527344 202.191406 39.410156 202.269531 C 37.886719 203.273438 36.449219 204.394531 35.105469 205.636719 C 35 205.730469 34.894531 205.828125 34.792969 205.921875 C 31.5625 208.964844 28.992188 212.492188 27.078125 216.496094 C 26.324219 218.082031 25.695312 219.714844 25.191406 221.394531 C 24.492188 223.710938 23.921875 226.277344 22.542969 228.171875 C 22.398438 228.371094 22.246094 228.5625 22.082031 228.742188 L 9.613281 228.742188 C 9.582031 228.726562 9.554688 228.714844 9.527344 228.703125 L 9.027344 228.726562 C 9.046875 228.636719 9.070312 228.546875 9.089844 228.457031 C 9.101562 228.40625 9.117188 228.355469 9.128906 228.304688 C 9.136719 228.269531 9.144531 228.234375 9.152344 228.203125 C 9.152344 228.191406 9.15625 228.179688 9.160156 228.171875 C 9.164062 228.140625 9.171875 228.113281 9.179688 228.082031 C 9.304688 227.574219 9.433594 227.0625 9.566406 226.554688 C 9.566406 226.550781 9.566406 226.550781 9.570312 226.546875 C 10.589844 222.664062 11.945312 218.832031 13.835938 215.328125 C 13.894531 215.222656 13.949219 215.113281 14.011719 215.007812 C 14.875 213.429688 15.859375 211.933594 16.96875 210.515625 C 17.578125 209.746094 18.222656 209.003906 18.90625 208.296875 C 20.683594 206.464844 22.703125 204.949219 24.960938 203.753906 C 29.433594 201.390625 34.609375 200.484375 39.390625 201.929688 C 39.511719 201.964844 39.632812 202.003906 39.753906 202.042969 Z M 39.753906 202.042969 " fill-opacity="1" fill-rule="nonzero"/><path fill="#ffffff" d="M 39.726562 202.203125 C 36.621094 202.820312 33.6875 203.898438 30.921875 205.445312 C 28.15625 206.988281 25.699219 208.921875 23.542969 211.242188 C 22.589844 212.230469 21.8125 213.34375 21.214844 214.578125 C 20.664062 215.816406 20.460938 217.105469 20.613281 218.453125 C 20.726562 219.6875 20.988281 220.941406 20.800781 222.183594 C 20.695312 222.824219 20.460938 223.414062 20.101562 223.957031 C 19.742188 224.5 19.289062 224.941406 18.738281 225.289062 C 17.410156 226.179688 15.839844 226.539062 14.289062 226.835938 C 12.570312 227.167969 10.78125 227.484375 9.347656 228.558594 C 9.171875 228.6875 8.980469 228.410156 9.15625 228.28125 C 11.648438 226.410156 14.996094 226.800781 17.726562 225.480469 C 19 224.863281 20.09375 223.859375 20.410156 222.433594 C 20.6875 221.183594 20.421875 219.894531 20.292969 218.644531 C 20.128906 217.335938 20.277344 216.066406 20.738281 214.832031 C 21.273438 213.570312 22.003906 212.433594 22.929688 211.417969 C 24.972656 209.109375 27.324219 207.171875 29.980469 205.605469 C 33.003906 203.796875 36.246094 202.550781 39.699219 201.863281 C 39.910156 201.824219 39.9375 202.160156 39.726562 202.203125 Z M 39.726562 202.203125 " fill-opacity="1" fill-rule="nonzero"/></g><path fill="#ffffff" d="M 24.84375 209.664062 C 24.503906 209.25 24.246094 208.789062 24.070312 208.28125 C 23.894531 207.773438 23.808594 207.253906 23.820312 206.714844 C 23.828125 206.179688 23.929688 205.660156 24.125 205.160156 C 24.316406 204.660156 24.589844 204.207031 24.945312 203.804688 C 25.089844 203.644531 25.347656 203.859375 25.203125 204.023438 C 24.875 204.398438 24.617188 204.816406 24.4375 205.28125 C 24.257812 205.75 24.164062 206.230469 24.15625 206.730469 C 24.148438 207.230469 24.226562 207.71875 24.394531 208.1875 C 24.558594 208.660156 24.800781 209.089844 25.117188 209.472656 C 25.257812 209.640625 24.980469 209.832031 24.84375 209.664062 Z M 24.84375 209.664062 " fill-opacity="1" fill-rule="nonzero"/><path fill="#ffffff" d="M 20.472656 217.835938 C 21.5625 217.953125 22.636719 217.867188 23.695312 217.582031 C 24.75 217.292969 25.71875 216.824219 26.597656 216.167969 C 26.773438 216.039062 26.964844 216.316406 26.792969 216.445312 C 25.875 217.125 24.867188 217.613281 23.765625 217.910156 C 22.664062 218.207031 21.546875 218.292969 20.414062 218.167969 C 20.199219 218.144531 20.257812 217.8125 20.472656 217.835938 Z M 20.472656 217.835938 " fill-opacity="1" fill-rule="nonzero"/><path fill="#ffffff" d="M 33.042969 204.257812 C 33.238281 204.636719 33.519531 204.949219 33.875 205.191406 C 34.230469 205.433594 34.621094 205.574219 35.050781 205.621094 C 35.265625 205.640625 35.207031 205.972656 34.992188 205.953125 C 34.519531 205.902344 34.085938 205.742188 33.691406 205.476562 C 33.296875 205.210938 32.988281 204.867188 32.765625 204.449219 C 32.703125 204.355469 32.71875 204.277344 32.804688 204.214844 C 32.898438 204.148438 32.976562 204.164062 33.042969 204.257812 Z M 33.042969 204.257812 " fill-opacity="1" fill-rule="nonzero"/><g clip-path="url(#82d12e10a2)"><path fill="#3f3d56" d="M 216.167969 54.988281 C 213.617188 52.277344 210.832031 49.835938 207.808594 47.667969 C 204.78125 45.496094 201.578125 43.640625 198.191406 42.097656 C 194.808594 40.554688 191.304688 39.351562 187.6875 38.488281 C 184.066406 37.625 180.398438 37.121094 176.683594 36.976562 L 176.683594 94.535156 Z M 216.167969 54.988281 " fill-opacity="1" fill-rule="nonzero"/></g><path fill="#e4e4e4" d="M 216.167969 62.15625 L 176.683594 101.703125 L 231.867188 101.703125 C 231.871094 98.058594 231.53125 94.449219 230.851562 90.867188 C 230.167969 87.289062 229.15625 83.804688 227.8125 80.417969 C 226.46875 77.03125 224.816406 73.804688 222.859375 70.730469 C 220.898438 67.660156 218.671875 64.800781 216.167969 62.15625 Z M 216.167969 62.15625 " fill-opacity="1" fill-rule="nonzero"/><path fill="#f0f0f0" d="M 231.925781 105.839844 C 231.925781 109.4375 231.597656 113 230.933594 116.535156 C 230.882812 116.8125 230.828125 117.089844 230.773438 117.367188 C 229.519531 123.558594 227.296875 129.382812 224.113281 134.839844 C 223.945312 135.128906 223.773438 135.421875 223.601562 135.703125 L 223.601562 135.707031 C 220.464844 140.875 216.613281 145.4375 212.050781 149.394531 C 211.824219 149.589844 211.601562 149.785156 211.371094 149.976562 C 208.953125 152.015625 206.378906 153.839844 203.65625 155.453125 C 200.933594 157.066406 198.097656 158.445312 195.144531 159.585938 C 192.195312 160.730469 189.171875 161.621094 186.070312 162.261719 C 182.972656 162.902344 179.84375 163.28125 176.683594 163.402344 L 176.683594 105.839844 Z M 231.925781 105.839844 " fill-opacity="1" fill-rule="nonzero"/><path fill="#cacaca" d="M 171.101562 163.453125 C 171.863281 163.453125 172.625 163.433594 173.378906 163.402344 L 173.378906 105.839844 L 131.585938 147.703125 C 134.226562 150.210938 137.082031 152.449219 140.152344 154.414062 C 143.21875 156.378906 146.445312 158.035156 149.828125 159.382812 C 153.214844 160.730469 156.695312 161.75 160.273438 162.433594 C 163.847656 163.117188 167.457031 163.457031 171.101562 163.453125 Z M 171.101562 163.453125 " fill-opacity="1" fill-rule="nonzero"/><path fill="#6c63ff" d="M 171.179688 44.089844 C 139.410156 44.089844 113.65625 69.886719 113.65625 101.703125 L 173.519531 101.703125 L 173.519531 44.140625 C 172.742188 44.109375 171.960938 44.089844 171.179688 44.089844 Z M 171.179688 44.089844 " fill-opacity="1" fill-rule="nonzero"/><path fill="#6c63ff" d="M 157.457031 105.839844 L 145.363281 117.953125 L 144.957031 118.359375 L 134.414062 128.917969 L 134.011719 129.320312 L 122.617188 140.730469 L 122.214844 141.132812 L 122.214844 141.136719 L 115.660156 147.699219 C 112.8125 145.011719 110.265625 142.0625 108.023438 138.851562 C 105.777344 135.640625 103.882812 132.234375 102.332031 128.636719 C 100.785156 125.035156 99.617188 121.316406 98.828125 117.476562 C 98.039062 113.640625 97.648438 109.757812 97.652344 105.839844 Z M 157.457031 105.839844 " fill-opacity="1" fill-rule="nonzero"/><path fill="#ffb6b6" d="M 63.632812 158.273438 C 63.851562 158.140625 64.054688 157.984375 64.238281 157.804688 C 64.425781 157.628906 64.589844 157.433594 64.734375 157.21875 C 64.875 157.003906 64.992188 156.777344 65.085938 156.535156 C 65.179688 156.296875 65.246094 156.046875 65.285156 155.792969 C 65.324219 155.539062 65.335938 155.28125 65.316406 155.023438 C 65.300781 154.765625 65.257812 154.515625 65.183594 154.269531 C 65.113281 154.019531 65.011719 153.785156 64.890625 153.558594 C 64.765625 153.332031 64.617188 153.121094 64.449219 152.929688 L 64.921875 127.015625 L 59.253906 127.492188 L 59.265625 152.753906 C 58.960938 153.0625 58.71875 153.414062 58.542969 153.8125 C 58.367188 154.207031 58.265625 154.621094 58.242188 155.054688 C 58.21875 155.488281 58.269531 155.910156 58.402344 156.324219 C 58.53125 156.738281 58.730469 157.117188 59 157.457031 C 59.269531 157.796875 59.589844 158.078125 59.960938 158.300781 C 60.335938 158.523438 60.734375 158.671875 61.160156 158.746094 C 61.585938 158.820312 62.015625 158.820312 62.4375 158.738281 C 62.863281 158.65625 63.261719 158.5 63.632812 158.273438 Z M 63.632812 158.273438 " fill-opacity="1" fill-rule="nonzero"/><path fill="#e4e4e4" d="M 65.816406 133.359375 L 58.402344 132.652344 C 58.1875 132.632812 57.988281 132.566406 57.800781 132.460938 C 57.617188 132.351562 57.460938 132.210938 57.339844 132.035156 C 57.214844 131.859375 57.132812 131.667969 57.09375 131.457031 C 57.050781 131.246094 57.058594 131.035156 57.109375 130.828125 L 58.890625 123.605469 C 58.917969 123.339844 58.96875 123.078125 59.046875 122.820312 C 59.125 122.5625 59.230469 122.316406 59.355469 122.078125 C 59.484375 121.84375 59.632812 121.621094 59.804688 121.414062 C 59.972656 121.203125 60.164062 121.015625 60.371094 120.84375 C 60.578125 120.675781 60.800781 120.527344 61.039062 120.398438 C 61.273438 120.273438 61.519531 120.171875 61.777344 120.09375 C 62.035156 120.015625 62.296875 119.964844 62.5625 119.9375 C 62.832031 119.910156 63.097656 119.910156 63.367188 119.9375 C 63.632812 119.964844 63.894531 120.015625 64.152344 120.09375 C 64.410156 120.171875 64.65625 120.273438 64.890625 120.398438 C 65.128906 120.527344 65.351562 120.675781 65.558594 120.84375 C 65.765625 121.015625 65.957031 121.203125 66.125 121.414062 C 66.296875 121.621094 66.445312 121.84375 66.574219 122.078125 C 66.699219 122.316406 66.804688 122.5625 66.882812 122.820312 C 66.960938 123.078125 67.011719 123.339844 67.039062 123.605469 C 67.066406 123.875 67.066406 124.140625 67.042969 124.410156 L 67.429688 131.8125 C 67.441406 132.027344 67.40625 132.234375 67.328125 132.433594 C 67.246094 132.632812 67.132812 132.808594 66.976562 132.957031 C 66.820312 133.105469 66.644531 133.214844 66.441406 133.285156 C 66.238281 133.355469 66.03125 133.378906 65.816406 133.359375 Z M 65.816406 133.359375 " fill-opacity="1" fill-rule="nonzero"/><path fill="#ffb6b6" d="M 53.484375 225.691406 L 56.359375 225.691406 L 57.730469 214.574219 L 53.484375 214.574219 Z M 53.484375 225.691406 " fill-opacity="1" fill-rule="nonzero"/><g clip-path="url(#bcc9916595)"><path fill="#2f2e41" d="M 52.75 224.75 L 58.414062 224.75 C 58.894531 224.75 59.355469 224.84375 59.796875 225.023438 C 60.238281 225.207031 60.628906 225.46875 60.96875 225.808594 C 61.308594 226.148438 61.570312 226.539062 61.75 226.984375 C 61.933594 227.425781 62.027344 227.886719 62.027344 228.367188 L 62.027344 228.484375 L 52.75 228.484375 Z M 52.75 224.75 " fill-opacity="1" fill-rule="nonzero"/></g><path fill="#ffb6b6" d="M 80.003906 225.691406 L 82.878906 225.691406 L 84.25 214.574219 L 80 214.574219 Z M 80.003906 225.691406 " fill-opacity="1" fill-rule="nonzero"/><g clip-path="url(#3cbcc8a152)"><path fill="#2f2e41" d="M 79.269531 224.75 L 84.933594 224.75 C 85.414062 224.75 85.875 224.84375 86.316406 225.023438 C 86.757812 225.207031 87.148438 225.46875 87.488281 225.808594 C 87.828125 226.148438 88.085938 226.539062 88.269531 226.984375 C 88.453125 227.425781 88.546875 227.886719 88.546875 228.367188 L 88.546875 228.484375 L 79.269531 228.484375 Z M 79.269531 224.75 " fill-opacity="1" fill-rule="nonzero"/></g><path fill="#ffb6b6" d="M 76.527344 136.394531 L 78.40625 148.382812 L 60.570312 148.617188 L 62.917969 137.097656 Z M 76.527344 136.394531 " fill-opacity="1" fill-rule="nonzero"/><path fill="#2f2e41" d="M 77.886719 145.453125 C 83.546875 155.328125 84.03125 188.808594 84.273438 223.386719 L 79.460938 223.386719 L 67.960938 172.945312 L 57.402344 222.070312 L 52.707031 222.070312 L 55.992188 166.832031 C 55.992188 166.832031 55.023438 155.746094 59.984375 149.203125 L 61.191406 145.710938 Z M 77.886719 145.453125 " fill-opacity="1" fill-rule="nonzero"/><path fill="#e4e4e4" d="M 63.527344 143.015625 C 63.425781 143.015625 63.320312 143.003906 63.21875 142.984375 C 62.867188 142.914062 62.570312 142.742188 62.332031 142.472656 C 62.09375 142.203125 61.960938 141.886719 61.933594 141.527344 C 61.757812 139.109375 60.882812 134.898438 59.335938 129.011719 C 59.074219 128.011719 58.972656 126.996094 59.027344 125.960938 C 59.085938 124.929688 59.296875 123.929688 59.667969 122.964844 C 60.035156 122 60.542969 121.113281 61.1875 120.308594 C 61.835938 119.5 62.589844 118.8125 63.449219 118.242188 C 64.308594 117.671875 65.238281 117.246094 66.230469 116.964844 C 67.226562 116.6875 68.238281 116.566406 69.269531 116.605469 C 70.300781 116.644531 71.300781 116.835938 72.273438 117.191406 C 73.242188 117.542969 74.136719 118.035156 74.953125 118.667969 C 76.011719 119.476562 76.867188 120.464844 77.519531 121.625 C 78.175781 122.785156 78.574219 124.027344 78.722656 125.355469 C 79.492188 132.136719 78.039062 138.949219 77.382812 141.5625 C 77.292969 141.914062 77.105469 142.203125 76.824219 142.425781 C 76.539062 142.652344 76.21875 142.769531 75.859375 142.777344 L 63.5625 143.015625 C 63.550781 143.015625 63.539062 143.015625 63.527344 143.015625 Z M 63.527344 143.015625 " fill-opacity="1" fill-rule="nonzero"/><path fill="#ffb6b6" d="M 97.878906 121.25 C 97.804688 121.417969 97.742188 121.585938 97.695312 121.761719 L 82.308594 127 L 79.332031 124.398438 L 74.824219 128.382812 L 79.644531 133.5 C 79.839844 133.707031 80.058594 133.878906 80.308594 134.011719 C 80.558594 134.144531 80.824219 134.238281 81.105469 134.285156 C 81.382812 134.335938 81.664062 134.335938 81.945312 134.292969 C 82.226562 134.253906 82.492188 134.167969 82.742188 134.039062 L 99.210938 125.613281 C 99.609375 125.859375 100.042969 126.015625 100.507812 126.082031 C 100.96875 126.152344 101.429688 126.128906 101.882812 126.007812 C 102.335938 125.890625 102.746094 125.6875 103.117188 125.398438 C 103.488281 125.113281 103.785156 124.761719 104.015625 124.355469 C 104.242188 123.945312 104.382812 123.503906 104.429688 123.039062 C 104.480469 122.570312 104.4375 122.113281 104.300781 121.664062 C 104.164062 121.21875 103.941406 120.8125 103.640625 120.453125 C 103.339844 120.09375 102.980469 119.808594 102.5625 119.597656 C 102.140625 119.386719 101.699219 119.265625 101.230469 119.234375 C 100.765625 119.207031 100.308594 119.269531 99.867188 119.425781 C 99.425781 119.582031 99.03125 119.816406 98.6875 120.132812 C 98.339844 120.453125 98.070312 120.824219 97.878906 121.25 Z M 97.878906 121.25 " fill-opacity="1" fill-rule="nonzero"/><path fill="#e4e4e4" d="M 81.769531 127.289062 L 76.160156 132.195312 C 76 132.335938 75.816406 132.4375 75.609375 132.5 C 75.402344 132.558594 75.195312 132.574219 74.984375 132.546875 C 74.769531 132.515625 74.574219 132.441406 74.394531 132.324219 C 74.214844 132.210938 74.066406 132.0625 73.949219 131.882812 L 69.9375 125.621094 C 69.761719 125.417969 69.605469 125.199219 69.472656 124.964844 C 69.339844 124.734375 69.234375 124.488281 69.148438 124.234375 C 69.0625 123.976562 69.003906 123.714844 68.972656 123.449219 C 68.9375 123.183594 68.929688 122.914062 68.949219 122.648438 C 68.96875 122.378906 69.015625 122.113281 69.085938 121.855469 C 69.15625 121.597656 69.253906 121.347656 69.371094 121.105469 C 69.492188 120.867188 69.636719 120.640625 69.800781 120.425781 C 69.964844 120.214844 70.148438 120.019531 70.351562 119.84375 C 70.554688 119.667969 70.769531 119.511719 71.003906 119.378906 C 71.238281 119.246094 71.480469 119.136719 71.734375 119.050781 C 71.992188 118.964844 72.25 118.90625 72.519531 118.871094 C 72.785156 118.835938 73.050781 118.828125 73.320312 118.847656 C 73.585938 118.867188 73.851562 118.910156 74.109375 118.980469 C 74.367188 119.050781 74.617188 119.148438 74.859375 119.265625 C 75.097656 119.386719 75.324219 119.527344 75.539062 119.691406 C 75.75 119.855469 75.945312 120.039062 76.121094 120.242188 L 81.757812 125.050781 C 81.921875 125.191406 82.046875 125.355469 82.136719 125.550781 C 82.226562 125.746094 82.273438 125.953125 82.273438 126.167969 C 82.277344 126.382812 82.234375 126.585938 82.144531 126.78125 C 82.058594 126.976562 81.933594 127.144531 81.769531 127.289062 Z M 81.769531 127.289062 " fill-opacity="1" fill-rule="nonzero"/><path fill="#ffb6b6" d="M 71.234375 100.898438 C 71.667969 101.132812 72.078125 101.414062 72.457031 101.730469 C 72.835938 102.050781 73.179688 102.402344 73.492188 102.789062 C 73.800781 103.175781 74.074219 103.585938 74.300781 104.027344 C 74.53125 104.464844 74.714844 104.921875 74.855469 105.398438 C 74.992188 105.875 75.085938 106.359375 75.128906 106.855469 C 75.171875 107.347656 75.167969 107.84375 75.117188 108.335938 C 75.0625 108.828125 74.960938 109.3125 74.8125 109.785156 C 74.664062 110.257812 74.472656 110.710938 74.234375 111.148438 C 73.996094 111.582031 73.71875 111.988281 73.402344 112.371094 C 73.085938 112.75 72.734375 113.097656 72.347656 113.40625 C 71.960938 113.71875 71.550781 113.988281 71.109375 114.21875 C 70.671875 114.449219 70.214844 114.632812 69.738281 114.773438 C 69.265625 114.910156 68.78125 115.003906 68.285156 115.046875 C 67.792969 115.089844 67.300781 115.085938 66.808594 115.035156 C 66.316406 114.980469 65.832031 114.878906 65.359375 114.730469 C 64.886719 114.582031 64.433594 114.390625 64 114.152344 C 63.566406 113.914062 63.160156 113.636719 62.777344 113.316406 C 62.398438 113 62.054688 112.648438 61.742188 112.261719 C 61.433594 111.875 61.164062 111.460938 60.933594 111.023438 C 60.703125 110.582031 60.519531 110.125 60.382812 109.648438 C 60.242188 109.171875 60.148438 108.6875 60.105469 108.195312 C 60.0625 107.699219 60.066406 107.207031 60.121094 106.714844 C 60.171875 106.21875 60.273438 105.738281 60.421875 105.265625 C 60.570312 104.789062 60.761719 104.335938 61 103.902344 C 61.238281 103.464844 61.515625 103.058594 61.832031 102.679688 C 62.152344 102.296875 62.503906 101.953125 62.886719 101.640625 C 63.273438 101.328125 63.6875 101.058594 64.125 100.828125 C 64.5625 100.601562 65.019531 100.414062 65.496094 100.277344 C 65.972656 100.136719 66.457031 100.042969 66.949219 100 C 67.441406 99.957031 67.933594 99.960938 68.425781 100.015625 C 68.917969 100.066406 69.402344 100.167969 69.875 100.316406 C 70.347656 100.464844 70.800781 100.660156 71.234375 100.898438 Z M 71.234375 100.898438 " fill-opacity="1" fill-rule="nonzero"/><path fill="#2f2e41" d="M 69.695312 97.070312 L 68.164062 97.070312 C 67.425781 96.839844 66.671875 96.722656 65.898438 96.722656 C 65.769531 96.722656 65.644531 96.726562 65.519531 96.734375 C 64.804688 96.777344 64.113281 96.929688 63.445312 97.1875 C 62.777344 97.449219 62.164062 97.800781 61.605469 98.25 C 61.046875 98.699219 60.566406 99.222656 60.167969 99.820312 C 59.773438 100.414062 59.472656 101.058594 59.273438 101.746094 C 57.5625 107.464844 58.300781 113.789062 58.300781 113.789062 C 60.796875 114.921875 64.613281 115.757812 70.246094 115.070312 L 71.074219 111.589844 L 71.003906 114.964844 C 71.800781 114.855469 72.628906 114.710938 73.492188 114.535156 L 73.492188 107.097656 L 76.941406 107.097656 C 76.941406 101.558594 75.222656 97.070312 69.695312 97.070312 Z M 69.695312 97.070312 " fill-opacity="1" fill-rule="nonzero"/><g clip-path="url(#0c377dc416)"><path fill="#f0f0f0" d="M 242.039062 163.773438 L 133.648438 163.773438 C 133.566406 163.773438 133.5 163.746094 133.445312 163.691406 C 133.390625 163.636719 133.363281 163.570312 133.363281 163.488281 C 133.363281 163.410156 133.390625 163.34375 133.445312 163.289062 C 133.5 163.234375 133.566406 163.203125 133.648438 163.203125 L 242.039062 163.203125 C 242.117188 163.203125 242.183594 163.234375 242.238281 163.289062 C 242.292969 163.34375 242.324219 163.410156 242.324219 163.488281 C 242.324219 163.570312 242.292969 163.636719 242.238281 163.691406 C 242.183594 163.746094 242.117188 163.773438 242.039062 163.773438 Z M 242.039062 163.773438 " fill-opacity="1" fill-rule="nonzero"/></g><g clip-path="url(#51ad2fc8c8)"><path fill="#f0f0f0" d="M 242.179688 200.105469 L 242.179688 91.542969 C 242.179688 91.464844 242.207031 91.394531 242.261719 91.339844 C 242.320312 91.285156 242.386719 91.257812 242.464844 91.257812 C 242.542969 91.257812 242.609375 91.285156 242.664062 91.339844 C 242.722656 91.394531 242.75 91.464844 242.75 91.542969 L 242.75 200.105469 C 242.75 200.183594 242.722656 200.25 242.664062 200.304688 C 242.609375 200.363281 242.542969 200.390625 242.464844 200.390625 C 242.386719 200.390625 242.320312 200.363281 242.261719 200.304688 C 242.207031 200.25 242.179688 200.183594 242.179688 200.105469 Z M 242.179688 200.105469 " fill-opacity="1" fill-rule="nonzero"/></g><path fill="#f0f0f0" d="M 230.515625 173.746094 C 230.515625 174.046875 230.488281 174.34375 230.429688 174.636719 C 230.371094 174.929688 230.285156 175.214844 230.167969 175.492188 C 230.054688 175.769531 229.914062 176.03125 229.75 176.28125 C 229.582031 176.53125 229.394531 176.761719 229.183594 176.972656 C 228.972656 177.183594 228.742188 177.371094 228.492188 177.539062 C 228.246094 177.703125 227.980469 177.84375 227.707031 177.960938 C 227.429688 178.074219 227.144531 178.160156 226.851562 178.21875 C 226.558594 178.277344 226.261719 178.308594 225.964844 178.308594 C 225.664062 178.308594 225.371094 178.277344 225.078125 178.21875 C 224.78125 178.160156 224.5 178.074219 224.222656 177.960938 C 223.945312 177.84375 223.683594 177.703125 223.433594 177.539062 C 223.1875 177.371094 222.957031 177.183594 222.746094 176.972656 C 222.535156 176.761719 222.34375 176.53125 222.179688 176.28125 C 222.011719 176.03125 221.875 175.769531 221.757812 175.492188 C 221.644531 175.214844 221.558594 174.929688 221.5 174.636719 C 221.441406 174.34375 221.414062 174.046875 221.414062 173.746094 C 221.414062 173.449219 221.441406 173.152344 221.5 172.859375 C 221.558594 172.566406 221.644531 172.28125 221.757812 172.003906 C 221.875 171.726562 222.011719 171.464844 222.179688 171.214844 C 222.34375 170.964844 222.535156 170.734375 222.746094 170.523438 C 222.957031 170.3125 223.1875 170.125 223.433594 169.957031 C 223.683594 169.789062 223.945312 169.648438 224.222656 169.535156 C 224.5 169.421875 224.78125 169.335938 225.078125 169.277344 C 225.371094 169.21875 225.664062 169.1875 225.964844 169.1875 C 226.261719 169.1875 226.558594 169.21875 226.851562 169.277344 C 227.144531 169.335938 227.429688 169.421875 227.707031 169.535156 C 227.980469 169.648438 228.246094 169.789062 228.492188 169.957031 C 228.742188 170.125 228.972656 170.3125 229.183594 170.523438 C 229.394531 170.734375 229.582031 170.964844 229.75 171.214844 C 229.914062 171.464844 230.054688 171.726562 230.167969 172.003906 C 230.285156 172.28125 230.371094 172.566406 230.429688 172.859375 C 230.488281 173.152344 230.515625 173.449219 230.515625 173.746094 Z M 230.515625 173.746094 " fill-opacity="1" fill-rule="nonzero"/><path fill="#f0f0f0" d="M 119.847656 45.238281 C 119.847656 45.539062 119.820312 45.835938 119.761719 46.128906 C 119.703125 46.421875 119.617188 46.707031 119.503906 46.984375 C 119.386719 47.257812 119.246094 47.523438 119.082031 47.769531 C 118.914062 48.019531 118.726562 48.25 118.515625 48.460938 C 118.304688 48.671875 118.074219 48.863281 117.824219 49.027344 C 117.578125 49.195312 117.316406 49.335938 117.039062 49.449219 C 116.761719 49.566406 116.476562 49.652344 116.183594 49.710938 C 115.890625 49.769531 115.597656 49.796875 115.296875 49.796875 C 115 49.796875 114.703125 49.769531 114.410156 49.710938 C 114.117188 49.652344 113.832031 49.566406 113.554688 49.449219 C 113.277344 49.335938 113.015625 49.195312 112.769531 49.027344 C 112.519531 48.863281 112.289062 48.671875 112.078125 48.460938 C 111.867188 48.25 111.679688 48.019531 111.511719 47.769531 C 111.347656 47.523438 111.207031 47.257812 111.09375 46.984375 C 110.976562 46.707031 110.890625 46.421875 110.832031 46.128906 C 110.773438 45.835938 110.746094 45.539062 110.746094 45.238281 C 110.746094 44.9375 110.773438 44.640625 110.832031 44.347656 C 110.890625 44.054688 110.976562 43.769531 111.09375 43.492188 C 111.207031 43.21875 111.347656 42.953125 111.511719 42.707031 C 111.679688 42.457031 111.867188 42.226562 112.078125 42.015625 C 112.289062 41.804688 112.519531 41.613281 112.769531 41.449219 C 113.015625 41.28125 113.277344 41.140625 113.554688 41.027344 C 113.832031 40.910156 114.117188 40.824219 114.410156 40.765625 C 114.703125 40.707031 115 40.679688 115.296875 40.679688 C 115.597656 40.679688 115.890625 40.707031 116.183594 40.765625 C 116.476562 40.824219 116.761719 40.910156 117.039062 41.027344 C 117.316406 41.140625 117.578125 41.28125 117.824219 41.449219 C 118.074219 41.613281 118.304688 41.804688 118.515625 42.015625 C 118.726562 42.226562 118.914062 42.457031 119.082031 42.707031 C 119.246094 42.953125 119.386719 43.21875 119.503906 43.492188 C 119.617188 43.769531 119.703125 44.054688 119.761719 44.347656 C 119.820312 44.640625 119.847656 44.9375 119.847656 45.238281 Z M 119.847656 45.238281 " fill-opacity="1" fill-rule="nonzero"/><g clip-path="url(#7e9700518b)"><path fill="#cacaca" d="M 113.453125 228.457031 C 113.453125 228.535156 113.425781 228.601562 113.371094 228.660156 C 113.316406 228.714844 113.246094 228.742188 113.167969 228.742188 L 4.777344 228.742188 C 4.699219 228.742188 4.632812 228.714844 4.578125 228.660156 C 4.519531 228.601562 4.492188 228.535156 4.492188 228.457031 C 4.492188 228.378906 4.519531 228.3125 4.578125 228.253906 C 4.632812 228.199219 4.699219 228.171875 4.777344 228.171875 L 113.167969 228.171875 C 113.246094 228.171875 113.316406 228.199219 113.371094 228.253906 C 113.425781 228.3125 113.453125 228.378906 113.453125 228.457031 Z M 113.453125 228.457031 " fill-opacity="1" fill-rule="nonzero"/></g><path fill="#3f3d56" d="M 122.214844 141.136719 C 119.878906 138.816406 117.777344 136.296875 115.914062 133.578125 C 114.054688 130.863281 112.460938 127.992188 111.140625 124.972656 C 109.820312 121.953125 108.796875 118.835938 108.066406 115.621094 C 107.335938 112.410156 106.914062 109.15625 106.796875 105.859375 L 107.933594 105.820312 C 108.046875 109.042969 108.460938 112.226562 109.175781 115.371094 C 109.890625 118.515625 110.894531 121.5625 112.183594 124.515625 C 113.476562 127.46875 115.03125 130.277344 116.855469 132.9375 C 118.675781 135.59375 120.730469 138.058594 123.019531 140.328125 Z M 122.214844 141.136719 " fill-opacity="1" fill-rule="nonzero"/><path fill="#3f3d56" d="M 134.421875 128.929688 L 133.597656 129.710938 C 130.453125 126.386719 127.792969 122.710938 125.609375 118.6875 C 123.429688 114.664062 121.800781 110.425781 120.726562 105.972656 L 121.28125 105.839844 L 121.867188 105.839844 C 122.921875 110.167969 124.511719 114.285156 126.636719 118.199219 C 128.765625 122.109375 131.355469 125.683594 134.414062 128.917969 Z M 134.421875 128.929688 " fill-opacity="1" fill-rule="nonzero"/><path fill="#3f3d56" d="M 145.394531 117.992188 L 144.96875 118.347656 L 144.957031 118.359375 L 144.519531 118.722656 C 141.3125 114.878906 138.707031 110.660156 136.707031 106.066406 L 137.230469 105.839844 L 137.851562 105.839844 C 139.789062 110.230469 142.292969 114.269531 145.363281 117.953125 C 145.371094 117.96875 145.382812 117.980469 145.394531 117.992188 Z M 145.394531 117.992188 " fill-opacity="1" fill-rule="nonzero"/><g fill="#ffffff" fill-opacity="1"><g transform="translate(54.032099, 23.087907)"><g><path d="M 6.5 0 L 1.90625 0 C 1.632812 0 1.5 -0.132812 1.5 -0.40625 L 1.5 -14.765625 C 1.5 -15.035156 1.632812 -15.171875 1.90625 -15.171875 L 6.5 -15.171875 C 8.320312 -15.171875 9.835938 -14.867188 11.046875 -14.265625 C 12.253906 -13.671875 13.15625 -12.804688 13.75 -11.671875 C 14.351562 -10.546875 14.65625 -9.179688 14.65625 -7.578125 C 14.65625 -6.003906 14.359375 -4.648438 13.765625 -3.515625 C 13.179688 -2.378906 12.28125 -1.507812 11.0625 -0.90625 C 9.851562 -0.300781 8.332031 0 6.5 0 Z M 4.984375 -12.1875 L 4.984375 -2.984375 L 6.5 -2.984375 C 8.050781 -2.984375 9.222656 -3.390625 10.015625 -4.203125 C 10.816406 -5.015625 11.21875 -6.15625 11.21875 -7.625 C 11.21875 -9.09375 10.816406 -10.21875 10.015625 -11 C 9.222656 -11.789062 8.050781 -12.1875 6.5 -12.1875 Z M 4.984375 -12.1875 "/></g></g><g transform="translate(69.618895, 23.087907)"><g><path d="M 6.40625 -11.203125 C 7.207031 -11.203125 7.9375 -11.066406 8.59375 -10.796875 C 9.25 -10.535156 9.8125 -10.15625 10.28125 -9.65625 C 10.757812 -9.164062 11.128906 -8.570312 11.390625 -7.875 C 11.648438 -7.175781 11.78125 -6.390625 11.78125 -5.515625 C 11.78125 -5.335938 11.742188 -5.207031 11.671875 -5.125 C 11.609375 -5.050781 11.488281 -5.015625 11.3125 -5.015625 L 3.9375 -5.015625 C 3.96875 -4.441406 4.113281 -3.960938 4.375 -3.578125 C 4.632812 -3.203125 4.96875 -2.921875 5.375 -2.734375 C 5.78125 -2.546875 6.210938 -2.453125 6.671875 -2.453125 C 7.117188 -2.453125 7.578125 -2.535156 8.046875 -2.703125 C 8.515625 -2.878906 8.960938 -3.132812 9.390625 -3.46875 C 9.585938 -3.613281 9.765625 -3.601562 9.921875 -3.4375 L 11.109375 -1.953125 C 11.296875 -1.765625 11.257812 -1.566406 11 -1.359375 C 10.34375 -0.828125 9.628906 -0.425781 8.859375 -0.15625 C 8.097656 0.101562 7.335938 0.234375 6.578125 0.234375 C 5.804688 0.234375 5.078125 0.101562 4.390625 -0.15625 C 3.703125 -0.414062 3.097656 -0.789062 2.578125 -1.28125 C 2.054688 -1.78125 1.644531 -2.382812 1.34375 -3.09375 C 1.050781 -3.800781 0.90625 -4.597656 0.90625 -5.484375 C 0.90625 -6.359375 1.039062 -7.144531 1.3125 -7.84375 C 1.59375 -8.550781 1.976562 -9.15625 2.46875 -9.65625 C 2.96875 -10.15625 3.550781 -10.535156 4.21875 -10.796875 C 4.882812 -11.066406 5.613281 -11.203125 6.40625 -11.203125 Z M 6.484375 -8.734375 C 6.203125 -8.734375 5.898438 -8.679688 5.578125 -8.578125 C 5.253906 -8.472656 4.960938 -8.296875 4.703125 -8.046875 C 4.441406 -7.804688 4.25 -7.472656 4.125 -7.046875 L 8.59375 -7.046875 C 8.519531 -7.460938 8.367188 -7.796875 8.140625 -8.046875 C 7.921875 -8.296875 7.664062 -8.472656 7.375 -8.578125 C 7.09375 -8.679688 6.796875 -8.734375 6.484375 -8.734375 Z M 6.484375 -8.734375 "/></g></g><g transform="translate(82.262177, 23.087907)"><g><path d="M 4.75 0.234375 C 4.226562 0.234375 3.6875 0.191406 3.125 0.109375 C 2.570312 0.0351562 1.984375 -0.078125 1.359375 -0.234375 C 1.210938 -0.265625 1.117188 -0.328125 1.078125 -0.421875 C 1.035156 -0.515625 1.035156 -0.617188 1.078125 -0.734375 L 1.640625 -2.4375 C 1.722656 -2.664062 1.894531 -2.742188 2.15625 -2.671875 C 2.625 -2.523438 3.085938 -2.40625 3.546875 -2.3125 C 4.003906 -2.226562 4.414062 -2.1875 4.78125 -2.1875 C 5.144531 -2.1875 5.441406 -2.242188 5.671875 -2.359375 C 5.910156 -2.484375 6.03125 -2.695312 6.03125 -3 C 6.03125 -3.15625 5.953125 -3.296875 5.796875 -3.421875 C 5.640625 -3.546875 5.425781 -3.671875 5.15625 -3.796875 C 4.894531 -3.921875 4.601562 -4.050781 4.28125 -4.1875 C 3.957031 -4.320312 3.632812 -4.472656 3.3125 -4.640625 C 2.914062 -4.847656 2.539062 -5.085938 2.1875 -5.359375 C 1.832031 -5.640625 1.539062 -5.96875 1.3125 -6.34375 C 1.09375 -6.71875 0.984375 -7.164062 0.984375 -7.6875 C 0.984375 -8.320312 1.097656 -8.859375 1.328125 -9.296875 C 1.554688 -9.742188 1.863281 -10.109375 2.25 -10.390625 C 2.644531 -10.671875 3.085938 -10.875 3.578125 -11 C 4.078125 -11.132812 4.585938 -11.203125 5.109375 -11.203125 C 5.554688 -11.203125 6.050781 -11.160156 6.59375 -11.078125 C 7.144531 -10.992188 7.691406 -10.863281 8.234375 -10.6875 C 8.335938 -10.65625 8.414062 -10.597656 8.46875 -10.515625 C 8.53125 -10.429688 8.535156 -10.328125 8.484375 -10.203125 L 7.984375 -8.484375 C 7.953125 -8.359375 7.890625 -8.269531 7.796875 -8.21875 C 7.703125 -8.175781 7.59375 -8.175781 7.46875 -8.21875 C 7.050781 -8.363281 6.628906 -8.484375 6.203125 -8.578125 C 5.785156 -8.671875 5.414062 -8.71875 5.09375 -8.71875 C 4.789062 -8.71875 4.546875 -8.664062 4.359375 -8.5625 C 4.179688 -8.46875 4.09375 -8.3125 4.09375 -8.09375 C 4.09375 -7.882812 4.203125 -7.695312 4.421875 -7.53125 C 4.648438 -7.375 4.945312 -7.222656 5.3125 -7.078125 C 5.675781 -6.929688 6.0625 -6.769531 6.46875 -6.59375 C 6.800781 -6.445312 7.125 -6.28125 7.4375 -6.09375 C 7.757812 -5.90625 8.050781 -5.679688 8.3125 -5.421875 C 8.582031 -5.160156 8.796875 -4.859375 8.953125 -4.515625 C 9.109375 -4.179688 9.1875 -3.78125 9.1875 -3.3125 C 9.1875 -2.632812 9.054688 -2.066406 8.796875 -1.609375 C 8.546875 -1.148438 8.207031 -0.785156 7.78125 -0.515625 C 7.351562 -0.242188 6.875 -0.0507812 6.34375 0.0625 C 5.8125 0.175781 5.28125 0.234375 4.75 0.234375 Z M 4.75 0.234375 "/></g></g><g transform="translate(92.317537, 23.087907)"><g><path d="M 6.40625 -11.203125 C 7.207031 -11.203125 7.9375 -11.066406 8.59375 -10.796875 C 9.25 -10.535156 9.8125 -10.15625 10.28125 -9.65625 C 10.757812 -9.164062 11.128906 -8.570312 11.390625 -7.875 C 11.648438 -7.175781 11.78125 -6.390625 11.78125 -5.515625 C 11.78125 -5.335938 11.742188 -5.207031 11.671875 -5.125 C 11.609375 -5.050781 11.488281 -5.015625 11.3125 -5.015625 L 3.9375 -5.015625 C 3.96875 -4.441406 4.113281 -3.960938 4.375 -3.578125 C 4.632812 -3.203125 4.96875 -2.921875 5.375 -2.734375 C 5.78125 -2.546875 6.210938 -2.453125 6.671875 -2.453125 C 7.117188 -2.453125 7.578125 -2.535156 8.046875 -2.703125 C 8.515625 -2.878906 8.960938 -3.132812 9.390625 -3.46875 C 9.585938 -3.613281 9.765625 -3.601562 9.921875 -3.4375 L 11.109375 -1.953125 C 11.296875 -1.765625 11.257812 -1.566406 11 -1.359375 C 10.34375 -0.828125 9.628906 -0.425781 8.859375 -0.15625 C 8.097656 0.101562 7.335938 0.234375 6.578125 0.234375 C 5.804688 0.234375 5.078125 0.101562 4.390625 -0.15625 C 3.703125 -0.414062 3.097656 -0.789062 2.578125 -1.28125 C 2.054688 -1.78125 1.644531 -2.382812 1.34375 -3.09375 C 1.050781 -3.800781 0.90625 -4.597656 0.90625 -5.484375 C 0.90625 -6.359375 1.039062 -7.144531 1.3125 -7.84375 C 1.59375 -8.550781 1.976562 -9.15625 2.46875 -9.65625 C 2.96875 -10.15625 3.550781 -10.535156 4.21875 -10.796875 C 4.882812 -11.066406 5.613281 -11.203125 6.40625 -11.203125 Z M 6.484375 -8.734375 C 6.203125 -8.734375 5.898438 -8.679688 5.578125 -8.578125 C 5.253906 -8.472656 4.960938 -8.296875 4.703125 -8.046875 C 4.441406 -7.804688 4.25 -7.472656 4.125 -7.046875 L 8.59375 -7.046875 C 8.519531 -7.460938 8.367188 -7.796875 8.140625 -8.046875 C 7.921875 -8.296875 7.664062 -8.472656 7.375 -8.578125 C 7.09375 -8.679688 6.796875 -8.734375 6.484375 -8.734375 Z M 6.484375 -8.734375 "/></g></g><g transform="translate(104.960819, 23.087907)"><g><path d="M 14.34375 -11.203125 C 14.957031 -11.203125 15.507812 -11.09375 16 -10.875 C 16.488281 -10.664062 16.90625 -10.367188 17.25 -9.984375 C 17.59375 -9.609375 17.851562 -9.160156 18.03125 -8.640625 C 18.207031 -8.128906 18.296875 -7.570312 18.296875 -6.96875 L 18.296875 -0.40625 C 18.296875 -0.132812 18.160156 0 17.890625 0 L 15.546875 0 C 15.273438 0 15.140625 -0.132812 15.140625 -0.40625 L 15.140625 -6.3125 C 15.140625 -6.75 15.082031 -7.132812 14.96875 -7.46875 C 14.851562 -7.800781 14.664062 -8.0625 14.40625 -8.25 C 14.144531 -8.4375 13.804688 -8.53125 13.390625 -8.53125 C 12.742188 -8.53125 12.253906 -8.328125 11.921875 -7.921875 C 11.597656 -7.515625 11.4375 -6.988281 11.4375 -6.34375 L 11.4375 -0.40625 C 11.4375 -0.132812 11.300781 0 11.03125 0 L 8.6875 0 C 8.414062 0 8.28125 -0.132812 8.28125 -0.40625 L 8.28125 -6.3125 C 8.28125 -6.75 8.222656 -7.132812 8.109375 -7.46875 C 7.992188 -7.800781 7.804688 -8.0625 7.546875 -8.25 C 7.285156 -8.4375 6.9375 -8.53125 6.5 -8.53125 C 5.84375 -8.53125 5.347656 -8.328125 5.015625 -7.921875 C 4.691406 -7.515625 4.53125 -6.988281 4.53125 -6.34375 L 4.53125 -0.40625 C 4.53125 -0.132812 4.394531 0 4.125 0 L 1.78125 0 C 1.507812 0 1.375 -0.132812 1.375 -0.40625 L 1.375 -10.5625 C 1.375 -10.832031 1.507812 -10.96875 1.78125 -10.96875 L 3.3125 -10.96875 C 3.53125 -10.96875 3.675781 -10.851562 3.75 -10.625 L 4.046875 -9.703125 C 4.648438 -10.273438 5.238281 -10.664062 5.8125 -10.875 C 6.382812 -11.09375 6.945312 -11.203125 7.5 -11.203125 C 8.125 -11.203125 8.707031 -11.050781 9.25 -10.75 C 9.800781 -10.457031 10.234375 -10.035156 10.546875 -9.484375 C 10.847656 -9.859375 11.203125 -10.171875 11.609375 -10.421875 C 12.023438 -10.679688 12.46875 -10.875 12.9375 -11 C 13.40625 -11.132812 13.875 -11.203125 14.34375 -11.203125 Z M 14.34375 -11.203125 "/></g></g><g transform="translate(124.518396, 23.087907)"><g><path d="M 8.03125 -11.203125 C 8.820312 -11.203125 9.550781 -11.050781 10.21875 -10.75 C 10.882812 -10.457031 11.460938 -10.046875 11.953125 -9.515625 C 12.453125 -8.992188 12.835938 -8.390625 13.109375 -7.703125 C 13.378906 -7.015625 13.515625 -6.273438 13.515625 -5.484375 C 13.515625 -4.691406 13.378906 -3.953125 13.109375 -3.265625 C 12.835938 -2.578125 12.453125 -1.96875 11.953125 -1.4375 C 11.460938 -0.914062 10.882812 -0.503906 10.21875 -0.203125 C 9.550781 0.0859375 8.820312 0.234375 8.03125 0.234375 C 7.382812 0.234375 6.757812 0.125 6.15625 -0.09375 C 5.5625 -0.3125 5.023438 -0.613281 4.546875 -1 L 4.5625 4.125 C 4.5625 4.394531 4.425781 4.53125 4.15625 4.53125 L 1.796875 4.53125 C 1.523438 4.53125 1.390625 4.394531 1.390625 4.125 L 1.375 -10.5625 C 1.375 -10.832031 1.507812 -10.96875 1.78125 -10.96875 L 3.3125 -10.96875 C 3.53125 -10.96875 3.675781 -10.851562 3.75 -10.625 L 4.109375 -9.5 C 4.585938 -10.039062 5.160156 -10.457031 5.828125 -10.75 C 6.503906 -11.050781 7.238281 -11.203125 8.03125 -11.203125 Z M 7.375 -2.5 C 7.789062 -2.5 8.175781 -2.578125 8.53125 -2.734375 C 8.894531 -2.890625 9.210938 -3.101562 9.484375 -3.375 C 9.765625 -3.644531 9.976562 -3.957031 10.125 -4.3125 C 10.28125 -4.675781 10.359375 -5.066406 10.359375 -5.484375 C 10.359375 -5.898438 10.28125 -6.285156 10.125 -6.640625 C 9.976562 -7.003906 9.765625 -7.320312 9.484375 -7.59375 C 9.210938 -7.863281 8.894531 -8.078125 8.53125 -8.234375 C 8.175781 -8.390625 7.789062 -8.46875 7.375 -8.46875 C 6.96875 -8.46875 6.582031 -8.390625 6.21875 -8.234375 C 5.863281 -8.078125 5.546875 -7.863281 5.265625 -7.59375 C 4.992188 -7.320312 4.78125 -7.003906 4.625 -6.640625 C 4.46875 -6.285156 4.390625 -5.898438 4.390625 -5.484375 C 4.390625 -5.066406 4.46875 -4.675781 4.625 -4.3125 C 4.78125 -3.957031 4.992188 -3.644531 5.265625 -3.375 C 5.546875 -3.101562 5.863281 -2.890625 6.21875 -2.734375 C 6.582031 -2.578125 6.96875 -2.5 7.375 -2.5 Z M 7.375 -2.5 "/></g></g><g transform="translate(138.929762, 23.087907)"><g><path d="M 6.40625 -11.203125 C 7.207031 -11.203125 7.9375 -11.066406 8.59375 -10.796875 C 9.25 -10.535156 9.8125 -10.15625 10.28125 -9.65625 C 10.757812 -9.164062 11.128906 -8.570312 11.390625 -7.875 C 11.648438 -7.175781 11.78125 -6.390625 11.78125 -5.515625 C 11.78125 -5.335938 11.742188 -5.207031 11.671875 -5.125 C 11.609375 -5.050781 11.488281 -5.015625 11.3125 -5.015625 L 3.9375 -5.015625 C 3.96875 -4.441406 4.113281 -3.960938 4.375 -3.578125 C 4.632812 -3.203125 4.96875 -2.921875 5.375 -2.734375 C 5.78125 -2.546875 6.210938 -2.453125 6.671875 -2.453125 C 7.117188 -2.453125 7.578125 -2.535156 8.046875 -2.703125 C 8.515625 -2.878906 8.960938 -3.132812 9.390625 -3.46875 C 9.585938 -3.613281 9.765625 -3.601562 9.921875 -3.4375 L 11.109375 -1.953125 C 11.296875 -1.765625 11.257812 -1.566406 11 -1.359375 C 10.34375 -0.828125 9.628906 -0.425781 8.859375 -0.15625 C 8.097656 0.101562 7.335938 0.234375 6.578125 0.234375 C 5.804688 0.234375 5.078125 0.101562 4.390625 -0.15625 C 3.703125 -0.414062 3.097656 -0.789062 2.578125 -1.28125 C 2.054688 -1.78125 1.644531 -2.382812 1.34375 -3.09375 C 1.050781 -3.800781 0.90625 -4.597656 0.90625 -5.484375 C 0.90625 -6.359375 1.039062 -7.144531 1.3125 -7.84375 C 1.59375 -8.550781 1.976562 -9.15625 2.46875 -9.65625 C 2.96875 -10.15625 3.550781 -10.535156 4.21875 -10.796875 C 4.882812 -11.066406 5.613281 -11.203125 6.40625 -11.203125 Z M 6.484375 -8.734375 C 6.203125 -8.734375 5.898438 -8.679688 5.578125 -8.578125 C 5.253906 -8.472656 4.960938 -8.296875 4.703125 -8.046875 C 4.441406 -7.804688 4.25 -7.472656 4.125 -7.046875 L 8.59375 -7.046875 C 8.519531 -7.460938 8.367188 -7.796875 8.140625 -8.046875 C 7.921875 -8.296875 7.664062 -8.472656 7.375 -8.578125 C 7.09375 -8.679688 6.796875 -8.734375 6.484375 -8.734375 Z M 6.484375 -8.734375 "/></g></g><g transform="translate(151.573044, 23.087907)"><g><path d="M 7.9375 -11.203125 C 8.59375 -11.203125 9.15625 -11.109375 9.625 -10.921875 C 10.09375 -10.742188 10.484375 -10.5 10.796875 -10.1875 C 11.109375 -9.875 11.351562 -9.519531 11.53125 -9.125 C 11.71875 -8.738281 11.847656 -8.335938 11.921875 -7.921875 C 11.992188 -7.503906 12.03125 -7.097656 12.03125 -6.703125 L 12.03125 -0.40625 C 12.03125 -0.132812 11.894531 0 11.625 0 L 9.28125 0 C 9.007812 0 8.875 -0.132812 8.875 -0.40625 L 8.875 -6.140625 C 8.875 -6.585938 8.796875 -6.988281 8.640625 -7.34375 C 8.484375 -7.707031 8.25 -7.992188 7.9375 -8.203125 C 7.632812 -8.410156 7.257812 -8.515625 6.8125 -8.515625 C 6.363281 -8.515625 5.96875 -8.410156 5.625 -8.203125 C 5.289062 -8.003906 5.023438 -7.722656 4.828125 -7.359375 C 4.628906 -7.003906 4.53125 -6.59375 4.53125 -6.125 L 4.53125 -0.40625 C 4.53125 -0.132812 4.394531 0 4.125 0 L 1.78125 0 C 1.507812 0 1.375 -0.132812 1.375 -0.40625 L 1.375 -10.5625 C 1.375 -10.832031 1.507812 -10.96875 1.78125 -10.96875 L 3.3125 -10.96875 C 3.53125 -10.96875 3.675781 -10.851562 3.75 -10.625 L 4.078125 -9.609375 C 4.679688 -10.179688 5.3125 -10.585938 5.96875 -10.828125 C 6.632812 -11.078125 7.289062 -11.203125 7.9375 -11.203125 Z M 7.9375 -11.203125 "/></g></g><g transform="translate(164.868245, 23.087907)"><g><path d="M 4.125 0 L 1.78125 0 C 1.507812 0 1.375 -0.132812 1.375 -0.40625 L 1.375 -14.765625 C 1.375 -15.035156 1.507812 -15.171875 1.78125 -15.171875 L 4.125 -15.171875 C 4.394531 -15.171875 4.53125 -15.035156 4.53125 -14.765625 L 4.53125 -9.828125 C 4.957031 -10.253906 5.453125 -10.585938 6.015625 -10.828125 C 6.578125 -11.078125 7.21875 -11.203125 7.9375 -11.203125 C 8.582031 -11.203125 9.140625 -11.109375 9.609375 -10.921875 C 10.085938 -10.742188 10.484375 -10.5 10.796875 -10.1875 C 11.109375 -9.875 11.351562 -9.523438 11.53125 -9.140625 C 11.71875 -8.753906 11.847656 -8.347656 11.921875 -7.921875 C 11.992188 -7.503906 12.03125 -7.097656 12.03125 -6.703125 L 12.03125 -0.40625 C 12.03125 -0.132812 11.894531 0 11.625 0 L 9.28125 0 C 9.007812 0 8.875 -0.132812 8.875 -0.40625 L 8.875 -6.140625 C 8.875 -6.597656 8.796875 -7.003906 8.640625 -7.359375 C 8.484375 -7.710938 8.25 -7.992188 7.9375 -8.203125 C 7.632812 -8.410156 7.257812 -8.515625 6.8125 -8.515625 C 6.363281 -8.515625 5.96875 -8.410156 5.625 -8.203125 C 5.289062 -8.003906 5.023438 -7.722656 4.828125 -7.359375 C 4.628906 -7.003906 4.53125 -6.59375 4.53125 -6.125 L 4.53125 -0.40625 C 4.53125 -0.132812 4.394531 0 4.125 0 Z M 4.125 0 "/></g></g><g transform="translate(178.163446, 23.087907)"><g><path d="M 6.8125 0.234375 C 5.957031 0.234375 5.164062 0.09375 4.4375 -0.1875 C 3.71875 -0.46875 3.09375 -0.863281 2.5625 -1.375 C 2.03125 -1.882812 1.613281 -2.488281 1.3125 -3.1875 C 1.019531 -3.882812 0.875 -4.648438 0.875 -5.484375 C 0.875 -6.316406 1.019531 -7.082031 1.3125 -7.78125 C 1.613281 -8.476562 2.03125 -9.082031 2.5625 -9.59375 C 3.09375 -10.101562 3.71875 -10.5 4.4375 -10.78125 C 5.164062 -11.0625 5.957031 -11.203125 6.8125 -11.203125 C 7.6875 -11.203125 8.488281 -11.0625 9.21875 -10.78125 C 9.945312 -10.5 10.578125 -10.101562 11.109375 -9.59375 C 11.648438 -9.082031 12.066406 -8.476562 12.359375 -7.78125 C 12.648438 -7.082031 12.796875 -6.316406 12.796875 -5.484375 C 12.796875 -4.648438 12.648438 -3.882812 12.359375 -3.1875 C 12.066406 -2.488281 11.648438 -1.882812 11.109375 -1.375 C 10.578125 -0.863281 9.945312 -0.46875 9.21875 -0.1875 C 8.488281 0.09375 7.6875 0.234375 6.8125 0.234375 Z M 6.8125 -2.5 C 7.394531 -2.5 7.898438 -2.628906 8.328125 -2.890625 C 8.753906 -3.160156 9.082031 -3.519531 9.3125 -3.96875 C 9.539062 -4.414062 9.65625 -4.921875 9.65625 -5.484375 C 9.65625 -6.046875 9.539062 -6.550781 9.3125 -7 C 9.082031 -7.457031 8.753906 -7.816406 8.328125 -8.078125 C 7.898438 -8.335938 7.394531 -8.46875 6.8125 -8.46875 C 6.257812 -8.46875 5.769531 -8.335938 5.34375 -8.078125 C 4.925781 -7.816406 4.597656 -7.457031 4.359375 -7 C 4.128906 -6.550781 4.015625 -6.046875 4.015625 -5.484375 C 4.015625 -4.921875 4.128906 -4.414062 4.359375 -3.96875 C 4.597656 -3.519531 4.925781 -3.160156 5.34375 -2.890625 C 5.769531 -2.628906 6.257812 -2.5 6.8125 -2.5 Z M 6.8125 -2.5 "/></g></g></g></svg>