<svg width="56" height="56" viewBox="0 0 56 56" fill="none" xmlns="http://www.w3.org/2000/svg">
<path d="M4 14H52M18 14V12C18 9.34784 19.0536 6.8043 20.9289 4.92893C22.8043 3.05357 25.3478 2 28 2C30.6522 2 33.1957 3.05357 35.0711 4.92893C36.9464 6.8043 38 9.34784 38 12V14M22 26.004V42.012M34 26.004V42.012M10 14H46V50C46 51.0609 45.5786 52.0783 44.8284 52.8284C44.0783 53.5786 43.0609 54 42 54H14C12.9391 54 11.9217 53.5786 11.1716 52.8284C10.4214 52.0783 10 51.0609 10 50V14Z" stroke="black" stroke-width="4" stroke-linecap="round" stroke-linejoin="round"/>
</svg>
