<svg width="1351" height="240" viewBox="0 0 1351 240" fill="none" xmlns="http://www.w3.org/2000/svg">
<g clip-path="url(#clip0_839_98)">
<mask id="mask0_839_98" style="mask-type:luminance" maskUnits="userSpaceOnUse" x="0" y="0" width="1351" height="240">
<path d="M1351 0H0V240H1351V0Z" fill="white"/>
</mask>
<g mask="url(#mask0_839_98)">
<path d="M288.166 28.9087V28.9998C287.887 28.9087 287.585 28.9087 287.19 28.9087H265.854C263.32 28.9087 261.972 30.23 261.972 32.7132V162.067C278.846 160.176 291.071 146.097 291.071 122.313V112.039H305.829C340.181 112.039 353.382 96.4334 353.382 70.3712C353.382 45.4481 340.181 28.9087 305.829 28.9087H288.166ZM291.071 87.6853V53.6267H302.924C309.129 53.6267 324.26 53.4445 324.26 70.3712C324.26 87.503 308.944 87.6853 302.924 87.6853H291.071Z" fill="white"/>
<path d="M432.949 31.9614C432.158 30.0478 430.624 28.9087 428.487 28.9087H410.427C408.29 28.9087 406.756 30.0478 405.965 31.9614L355.902 162.067C378.029 158.263 394.809 145.619 404.129 116.117C408.499 125.731 418.771 132.201 434.507 132.201H441.572L449.242 155.21C450.031 157.511 451.38 158.263 453.518 158.263H476.621C478.735 158.263 480.107 157.124 480.107 155.415C480.107 155.028 479.921 154.458 479.711 153.889L432.949 31.9614ZM419.562 66.5667L433.716 108.804H406.454L419.562 66.5667Z" fill="white"/>
<path d="M517.557 28.9087V28.9998C517.278 28.9087 516.975 28.9087 516.58 28.9087H495.244C492.711 28.9087 491.363 30.23 491.363 32.7132V162.067C508.237 160.176 520.462 146.097 520.462 122.313V112.039H535.22C569.572 112.039 582.773 96.4334 582.773 70.3712C582.773 45.4481 569.572 28.9087 535.22 28.9087H517.557ZM520.462 87.6853V53.6267H532.315C538.521 53.6267 553.651 53.4445 553.651 70.3712C553.651 87.503 538.335 87.6853 532.315 87.6853H520.462Z" fill="white"/>
<path d="M654.578 54.7886C657.088 54.7886 658.459 53.4445 658.459 50.9841V32.7132C658.459 30.23 657.088 28.9087 654.578 28.9087H595.567C593.057 28.9087 591.686 30.23 591.686 32.7132V50.9841C591.686 53.4445 593.057 54.7886 595.567 54.7886H631.777C619.064 59.6411 610.511 72.7633 610.511 92.6289V132.383H595.567C593.057 132.383 591.686 133.727 591.686 136.187V154.458C591.686 156.941 593.057 158.263 595.567 158.263H654.578C657.088 158.263 658.459 156.941 658.459 154.458V136.187C658.459 133.727 657.088 132.383 654.578 132.383H639.633V54.7886H654.578Z" fill="white"/>
<path d="M759.754 134.684C748.784 119.648 735.978 111.469 722.405 108.143C753.455 106.89 765.588 92.1505 765.588 69.4372C765.588 44.5141 752.387 28.9087 718.035 28.9087H700.372V28.9998C700.093 28.9087 699.79 28.9087 699.395 28.9087H678.059C675.526 28.9087 674.178 30.23 674.178 32.7132V162.067C691.052 160.176 703.277 146.097 703.277 122.313V108.234H704.648L738.791 155.78C740.162 157.511 741.51 158.263 743.462 158.263H771.026C773.141 158.263 774.327 157.306 774.327 155.78C774.327 155.21 774.118 154.458 773.536 153.706L759.754 134.684ZM736.466 70.3712C736.466 87.503 721.15 87.6853 715.13 87.6853H703.277V53.6267H715.13C721.336 53.6267 736.466 53.4445 736.466 70.3712Z" fill="white"/>
<path d="M851.559 31.9614C850.768 30.0478 849.234 28.9087 847.097 28.9087H829.037C826.9 28.9087 825.366 30.0478 824.575 31.9614L774.512 162.067C796.639 158.263 813.419 145.619 822.739 116.117C827.109 125.731 837.381 132.201 853.117 132.201H860.182L867.852 155.21C868.642 157.511 869.99 158.263 872.128 158.263H895.231C897.345 158.263 898.717 157.124 898.717 155.415C898.717 155.028 898.531 154.458 898.321 153.889L851.559 31.9614ZM838.172 66.5667L852.326 108.804H825.064L838.172 66.5667Z" fill="white"/>
<path d="M910.16 162.067C927.056 158.263 939.282 146.097 939.282 116.595V96.4333C939.282 83.6984 936.748 78.1852 933.448 71.3279L934.238 70.7584L992.645 155.779C993.807 157.511 995.365 158.263 997.294 158.263H1017.68C1020.21 158.263 1021.56 156.941 1021.56 154.458V25.104C1004.68 28.9085 992.458 41.0739 992.458 70.5762V90.7379C992.458 103.473 994.969 108.986 998.27 115.843L997.502 116.413L939.072 31.3917C937.911 29.6603 936.377 28.9085 934.425 28.9085H914.041C911.531 28.9085 910.16 30.2299 910.16 32.7131V162.067Z" fill="white"/>
<path d="M1078.24 158.263C1127.33 158.263 1149.64 130.105 1149.64 93.5857C1149.64 57.0668 1127.14 28.9087 1078.24 28.9087H1046.79C1044.26 28.9087 1042.91 30.23 1042.91 32.7132V154.458C1042.91 156.941 1044.26 158.263 1046.79 158.263H1078.24ZM1072.01 54.7886H1080.96C1109.29 54.7886 1120.54 72.0799 1120.54 93.5857C1120.54 115.092 1109.08 132.383 1080.96 132.383H1072.01V54.7886Z" fill="white"/>
<path d="M1227.87 160.176C1268.61 160.176 1295.78 134.296 1295.78 93.403C1295.78 52.8745 1269.4 26.9946 1228.05 26.9946C1187.28 26.9946 1160.12 52.305 1160.12 93.198C1160.12 133.522 1186.53 160.176 1227.87 160.176ZM1227.87 134.296C1206.51 134.296 1189.24 119.078 1189.24 93.198C1189.24 67.5231 1206.51 52.8745 1227.87 52.8745C1249.6 52.8745 1266.68 67.7054 1266.68 93.198C1266.68 119.078 1249.6 134.296 1227.87 134.296Z" fill="white"/>
<path d="M1344.7 32.7132C1344.7 30.23 1343.32 28.9087 1340.81 28.9087H1319.45C1316.94 28.9087 1315.57 30.23 1315.57 32.7132V77.9803C1315.57 101.764 1327.8 115.843 1344.7 117.734V32.7132ZM1330.15 160.176C1340.6 160.176 1351.48 155.028 1351.48 144.753C1351.48 134.684 1340.6 129.353 1330.15 129.353C1319.45 129.353 1308.79 134.684 1308.79 144.753C1308.79 155.028 1319.45 160.176 1330.15 160.176Z" fill="white"/>
<path d="M1072.1 214.424C1072.1 216.315 1072.87 217.841 1074.63 218.798C1092.28 229.642 1127.42 239.916 1165.65 239.916C1204.46 239.916 1239.58 229.642 1256.85 218.798C1258.59 217.841 1259.2 216.315 1259.2 214.424V196.153C1259.2 193.123 1257.24 192.166 1254.52 193.692C1235.51 204.536 1201.35 214.424 1165.65 214.424C1128.76 214.424 1094.62 204.331 1076.56 193.692C1074.05 192.166 1072.1 193.305 1072.1 196.358V214.424Z" fill="white"/>
<path d="M4.41018 33.1223C1.90007 33.1223 0.528809 34.4209 0.528809 36.9269V55.1807C0.528809 57.6468 1.90007 58.9909 4.41018 58.9909H55.6816C44.0259 63.8206 36.2514 77.5237 36.2514 94.9403V158.661C36.2514 161.127 37.6285 162.471 40.1387 162.471H61.5096C64.0197 162.471 65.3445 161.127 65.3445 158.661V58.9909H97.1915C99.7016 58.9909 101.073 57.6468 101.073 55.1807V36.9269C101.073 34.4209 99.7016 33.1223 97.1915 33.1223H4.41018ZM175.208 13.6156C180.565 22.3466 192.791 28.0591 210.937 29.3121L193.261 4.18393C190.943 0.931853 190.374 -0.366699 188.05 -0.366699H162.413C160.095 -0.366699 159.479 0.931853 157.156 4.18393L139.532 29.3121C157.679 28.0591 169.904 22.3466 175.208 13.6156ZM175.208 31.2144C134.46 31.2144 107.307 56.5305 107.307 97.4007C107.307 137.764 133.699 164.373 175.016 164.373C215.772 164.373 242.97 138.505 242.97 97.5887C242.97 57.0886 216.573 31.2144 175.208 31.2144ZM175.016 138.505C153.698 138.505 136.401 123.269 136.401 97.4007C136.401 71.7144 153.698 57.0886 175.016 57.0886C196.771 57.0886 213.825 71.9024 213.825 97.4007C213.825 123.269 196.771 138.505 175.016 138.505Z" stroke="white" stroke-width="6.52414"/>
</g>
</g>
<defs>
<clipPath id="clip0_839_98">
<rect width="1351" height="240" fill="white"/>
</clipPath>
</defs>
</svg>
