<svg width="1211" height="240" viewBox="0 0 1211 240" fill="none" xmlns="http://www.w3.org/2000/svg">
<g clip-path="url(#clip0_473_2)">
<path d="M258.304 28.9086V28.9997C258.054 28.9086 257.783 28.9086 257.429 28.9086H238.304C236.033 28.9086 234.825 30.2299 234.825 32.7131V162.067C249.95 160.176 260.908 146.097 260.908 122.313V112.039H274.137C304.929 112.039 316.762 96.4333 316.762 70.3711C316.762 45.448 304.929 28.9086 274.137 28.9086H258.304ZM260.908 87.6852V53.6266H271.533C277.095 53.6266 290.658 53.4444 290.658 70.3711C290.658 87.5029 276.929 87.6852 271.533 87.6852H260.908Z" fill="#2118CD"/>
<path d="M388.084 31.9613C387.375 30.0477 386 28.9086 384.084 28.9086H367.896C365.98 28.9086 364.605 30.0477 363.896 31.9613L319.021 162.067C338.855 158.263 353.896 145.619 362.25 116.117C366.167 125.731 375.375 132.201 389.48 132.201H395.813L402.688 155.21C403.396 157.511 404.605 158.263 406.521 158.263H427.23C429.125 158.263 430.355 157.124 430.355 155.415C430.355 155.028 430.188 154.458 430 153.889L388.084 31.9613ZM376.084 66.5666L388.771 108.804H364.334L376.084 66.5666Z" fill="#2118CD"/>
<path d="M463.924 28.9086V28.9997C463.674 28.9086 463.403 28.9086 463.049 28.9086H443.924C441.653 28.9086 440.445 30.2299 440.445 32.7131V162.067C455.57 160.176 466.528 146.097 466.528 122.313V112.039H479.757C510.549 112.039 522.382 96.4333 522.382 70.3711C522.382 45.448 510.549 28.9086 479.757 28.9086H463.924ZM466.528 87.6852V53.6266H477.153C482.716 53.6266 496.278 53.4444 496.278 70.3711C496.278 87.5029 482.549 87.6852 477.153 87.6852H466.528Z" fill="#2118CD"/>
<path d="M586.746 54.7885C588.996 54.7885 590.225 53.4444 590.225 50.984V32.7131C590.225 30.2299 588.996 28.9086 586.746 28.9086H533.85C531.6 28.9086 530.371 30.2299 530.371 32.7131V50.984C530.371 53.4444 531.6 54.7885 533.85 54.7885H566.308C554.912 59.641 547.246 72.7632 547.246 92.6288V132.383H533.85C531.6 132.383 530.371 133.727 530.371 136.187V154.458C530.371 156.941 531.6 158.263 533.85 158.263H586.746C588.996 158.263 590.225 156.941 590.225 154.458V136.187C590.225 133.727 588.996 132.383 586.746 132.383H573.35V54.7885H586.746Z" fill="#2118CD"/>
<path d="M681.023 134.684C671.19 119.648 659.711 111.469 647.544 108.143C675.377 106.89 686.252 92.1504 686.252 69.4371C686.252 44.514 674.419 28.9086 643.627 28.9086H627.794V28.9997C627.544 28.9086 627.273 28.9086 626.919 28.9086H607.794C605.523 28.9086 604.315 30.2299 604.315 32.7131V162.067C619.44 160.176 630.398 146.097 630.398 122.313V108.234H631.627L662.232 155.78C663.461 157.511 664.669 158.263 666.419 158.263H691.127C693.023 158.263 694.086 157.306 694.086 155.78C694.086 155.21 693.898 154.458 693.377 153.706L681.023 134.684ZM660.148 70.3711C660.148 87.5029 646.419 87.6852 641.023 87.6852H630.398V53.6266H641.023C646.586 53.6266 660.148 53.4444 660.148 70.3711Z" fill="#2118CD"/>
<path d="M763.315 31.9613C762.606 30.0477 761.231 28.9086 759.315 28.9086H743.127C741.211 28.9086 739.836 30.0477 739.127 31.9613L694.252 162.067C714.086 158.263 729.127 145.619 737.481 116.117C741.398 125.731 750.606 132.201 764.711 132.201H771.044L777.919 155.21C778.627 157.511 779.836 158.263 781.752 158.263H802.461C804.356 158.263 805.586 157.124 805.586 155.415C805.586 155.028 805.419 154.458 805.231 153.889L763.315 31.9613ZM751.315 66.5666L764.002 108.804H739.565L751.315 66.5666Z" fill="#2118CD"/>
<path d="M815.843 162.067C830.988 158.263 841.947 146.097 841.947 116.595V96.4333C841.947 83.6984 839.676 78.1852 836.718 71.3279L837.426 70.7584L889.78 155.779C890.822 157.511 892.218 158.263 893.947 158.263H912.218C914.488 158.263 915.697 156.941 915.697 154.458V25.104C900.572 28.9085 889.613 41.0739 889.613 70.5762V90.7379C889.613 103.473 891.863 108.986 894.822 115.843L894.134 116.413L841.759 31.3917C840.718 29.6603 839.343 28.9085 837.593 28.9085H819.322C817.072 28.9085 815.843 30.2299 815.843 32.7131V162.067Z" fill="#2118CD"/>
<path d="M966.505 158.263C1010.51 158.263 1030.51 130.105 1030.51 93.5856C1030.51 57.0667 1010.34 28.9086 966.505 28.9086H938.318C936.047 28.9086 934.838 30.2299 934.838 32.7131V154.458C934.838 156.941 936.047 158.263 938.318 158.263H966.505ZM960.922 54.7885H968.943C994.338 54.7885 1004.42 72.0798 1004.42 93.5856C1004.42 115.092 994.151 132.383 968.943 132.383H960.922V54.7885Z" fill="#2118CD"/>
<path d="M1100.63 160.176C1137.15 160.176 1161.5 134.296 1161.5 93.4033C1161.5 52.8748 1137.86 26.9949 1100.79 26.9949C1064.25 26.9949 1039.9 52.3053 1039.9 93.1983C1039.9 133.522 1063.57 160.176 1100.63 160.176ZM1100.63 134.296C1081.48 134.296 1066 119.078 1066 93.1983C1066 67.5234 1081.48 52.8748 1100.63 52.8748C1120.11 52.8748 1135.42 67.7057 1135.42 93.1983C1135.42 119.078 1120.11 134.296 1100.63 134.296Z" fill="#2118CD"/>
<path d="M1205.35 32.7131C1205.35 30.2299 1204.12 28.9086 1201.87 28.9086H1182.72C1180.47 28.9086 1179.24 30.2299 1179.24 32.7131V77.9802C1179.24 101.764 1190.2 115.843 1205.35 117.734V32.7131ZM1192.31 160.176C1201.68 160.176 1211.43 155.028 1211.43 144.753C1211.43 134.684 1201.68 129.353 1192.31 129.353C1182.72 129.353 1173.16 134.684 1173.16 144.753C1173.16 155.028 1182.72 160.176 1192.31 160.176Z" fill="#2118CD"/>
<path d="M961.003 214.424C961.003 216.315 961.69 217.841 963.273 218.798C979.086 229.642 1010.59 239.916 1044.86 239.916C1079.65 239.916 1111.13 229.642 1126.61 218.798C1128.17 217.841 1128.71 216.315 1128.71 214.424V196.153C1128.71 193.123 1126.96 192.166 1124.52 193.692C1107.48 204.536 1076.86 214.424 1044.86 214.424C1011.79 214.424 981.19 204.331 965.003 193.692C962.753 192.166 961.003 193.305 961.003 196.358V214.424Z" fill="#004AAD"/>
<path d="M3.95316 33.1224C1.70316 33.1224 0.473999 34.421 0.473999 36.927V55.1808C0.473999 57.6469 1.70316 58.991 3.95316 58.991H49.9115C39.4636 63.8207 32.4948 77.5238 32.4948 94.9404V158.661C32.4948 161.127 33.7292 162.471 35.9792 162.471H55.1355C57.3855 162.471 58.573 161.127 58.573 158.661V58.991H87.1198C89.3698 58.991 90.599 57.6469 90.599 55.1808V36.927C90.599 34.421 89.3698 33.1224 87.1198 33.1224H3.95316ZM157.052 13.6157C161.854 22.3467 172.813 28.0592 189.078 29.3122L173.234 4.18405C171.156 0.931975 170.646 -0.366577 168.563 -0.366577H145.583C143.505 -0.366577 142.953 0.931975 140.87 4.18405L125.073 29.3122C141.339 28.0592 152.297 22.3467 157.052 13.6157ZM157.052 31.2145C120.526 31.2145 96.1875 56.5306 96.1875 97.4008C96.1875 137.764 119.844 164.373 156.88 164.373C193.412 164.373 217.792 138.505 217.792 97.5888C217.792 57.0887 194.13 31.2145 157.052 31.2145ZM156.88 138.505C137.771 138.505 122.266 123.269 122.266 97.4008C122.266 71.7145 137.771 57.0887 156.88 57.0887C176.38 57.0887 191.667 71.9025 191.667 97.4008C191.667 123.269 176.38 138.505 156.88 138.505Z" stroke="#2118CD" stroke-width="6.52414"/>
</g>
<defs>
<clipPath id="clip0_473_2">
<rect width="1211" height="240" fill="white"/>
</clipPath>
</defs>
</svg>
