<svg xmlns="http://www.w3.org/2000/svg" xmlns:xlink="http://www.w3.org/1999/xlink" width="324" zoomAndPan="magnify" viewBox="0 0 242.87999 242.999999" height="324" preserveAspectRatio="xMidYMid meet" version="1.0"><defs><g/><clipPath id="fb0132beb8"><path d="M 0 0.0585938 L 242.761719 0.0585938 L 242.761719 242.9375 L 0 242.9375 Z M 0 0.0585938 " clip-rule="nonzero"/></clipPath><clipPath id="b52e8d5a5d"><path d="M 38.230469 0.0585938 L 204.648438 0.0585938 C 214.789062 0.0585938 224.511719 4.089844 231.683594 11.257812 C 238.851562 18.425781 242.878906 28.152344 242.878906 38.292969 L 242.878906 204.707031 C 242.878906 214.847656 238.851562 224.574219 231.683594 231.742188 C 224.511719 238.910156 214.789062 242.941406 204.648438 242.941406 L 38.230469 242.941406 C 28.089844 242.941406 18.367188 238.910156 11.199219 231.742188 C 4.027344 224.574219 0 214.847656 0 204.707031 L 0 38.292969 C 0 28.152344 4.027344 18.425781 11.199219 11.257812 C 18.367188 4.089844 28.089844 0.0585938 38.230469 0.0585938 Z M 38.230469 0.0585938 " clip-rule="nonzero"/></clipPath><clipPath id="40ca382489"><path d="M 19 167 L 46 167 L 46 211.308594 L 19 211.308594 Z M 19 167 " clip-rule="nonzero"/></clipPath><clipPath id="75efec2a18"><path d="M 3.011719 185 L 21 185 L 21 211.308594 L 3.011719 211.308594 Z M 3.011719 185 " clip-rule="nonzero"/></clipPath><clipPath id="ac8c865276"><path d="M 14 162 L 21 162 L 21 211.308594 L 14 211.308594 Z M 14 162 " clip-rule="nonzero"/></clipPath><clipPath id="b517283466"><path d="M 3.011719 210 L 238 210 L 238 211 L 3.011719 211 Z M 3.011719 210 " clip-rule="nonzero"/></clipPath><clipPath id="cd8b9f7b48"><path d="M 195 50.886719 L 242.761719 50.886719 L 242.761719 108 L 195 108 Z M 195 50.886719 " clip-rule="nonzero"/></clipPath><clipPath id="8a41360734"><path d="M 0 30 L 242.761719 30 L 242.761719 34 L 0 34 Z M 0 30 " clip-rule="nonzero"/></clipPath></defs><g clip-path="url(#fb0132beb8)"><g clip-path="url(#b52e8d5a5d)"><path fill="#002f6d" d="M 0 0.0585938 L 242.878906 0.0585938 L 242.878906 242.941406 L 0 242.941406 Z M 0 0.0585938 " fill-opacity="1" fill-rule="nonzero"/></g></g><g clip-path="url(#40ca382489)"><path fill="#f2f2f2" d="M 45.539062 174.707031 C 45.199219 174.136719 43.730469 174.746094 43.460938 174.226562 C 43.191406 173.710938 44.558594 172.925781 45.335938 171.128906 C 45.476562 170.804688 46.363281 168.761719 45.707031 168.132812 C 44.464844 166.9375 38.777344 171.867188 36.789062 170.253906 C 36.351562 169.898438 36.046875 169.191406 34.726562 168.046875 C 34.199219 167.589844 33.882812 167.382812 33.574219 167.460938 C 33.140625 167.566406 33.105469 168.152344 32.636719 169.296875 C 31.933594 171.015625 31.519531 170.914062 31.109375 172.285156 C 30.804688 173.304688 30.875 173.894531 30.519531 174.011719 C 30.011719 174.175781 29.546875 173.09375 28.90625 173.191406 C 28.253906 173.289062 27.859375 174.546875 27.734375 175.488281 C 27.5 177.257812 28.148438 178.421875 28.507812 179.648438 C 28.902344 180.980469 29.132812 183.007812 28.230469 185.875 L 19.277344 211.046875 C 21.253906 205.882812 26.976562 191.722656 29.378906 186.460938 C 30.074219 184.941406 30.839844 183.402344 32.414062 182.792969 C 33.929688 182.207031 36.007812 182.558594 38.664062 181.917969 C 38.972656 181.84375 39.832031 181.628906 39.941406 181.121094 C 40.03125 180.703125 39.523438 180.472656 39.601562 180.082031 C 39.707031 179.558594 40.699219 179.550781 41.921875 178.945312 C 42.785156 178.519531 43.320312 178.011719 43.78125 177.578125 C 43.921875 177.445312 45.992188 175.464844 45.539062 174.707031 Z M 45.539062 174.707031 " fill-opacity="1" fill-rule="nonzero"/></g><g clip-path="url(#75efec2a18)"><path fill="#f2f2f2" d="M 10.320312 187.957031 C 9.941406 187.960938 9.820312 188.855469 9.488281 188.835938 C 9.15625 188.820312 9.160156 187.925781 8.503906 187.023438 C 8.382812 186.863281 7.636719 185.839844 7.136719 185.980469 C 6.191406 186.242188 6.972656 190.449219 5.605469 190.960938 C 5.308594 191.070312 4.871094 191.015625 3.925781 191.332031 C 3.550781 191.457031 3.355469 191.554688 3.304688 191.726562 C 3.234375 191.972656 3.511719 192.15625 3.9375 192.71875 C 4.582031 193.558594 4.410156 193.730469 4.96875 194.328125 C 5.378906 194.769531 5.691406 194.90625 5.644531 195.117188 C 5.578125 195.410156 4.914062 195.328125 4.777344 195.667969 C 4.636719 196.015625 5.140625 196.574219 5.570312 196.90625 C 6.371094 197.53125 7.128906 197.550781 7.835938 197.726562 C 8.605469 197.917969 9.667969 198.390625 10.820312 199.660156 L 20.613281 211.308594 C 18.644531 208.851562 13.332031 201.960938 11.4375 199.265625 C 10.894531 198.488281 10.355469 197.667969 10.511719 196.722656 C 10.660156 195.808594 11.433594 194.890625 11.882812 193.40625 C 11.9375 193.234375 12.078125 192.75 11.859375 192.550781 C 11.679688 192.386719 11.421875 192.566406 11.25 192.417969 C 11.023438 192.214844 11.308594 191.726562 11.363281 190.953125 C 11.402344 190.40625 11.308594 190 11.226562 189.644531 C 11.203125 189.539062 10.824219 187.957031 10.320312 187.957031 Z M 10.320312 187.957031 " fill-opacity="1" fill-rule="nonzero"/></g><path fill="#f2f2f2" d="M 17.875 189.648438 L 17.648438 187.617188 L 17.75 187.464844 C 18.234375 186.75 18.480469 186.054688 18.480469 185.394531 C 18.484375 185.289062 18.476562 185.183594 18.472656 185.078125 C 18.453125 184.652344 18.429688 184.125 18.703125 183.511719 C 18.859375 183.167969 19.292969 182.375 19.945312 182.476562 C 20.121094 182.5 20.253906 182.578125 20.351562 182.675781 C 20.367188 182.652344 20.382812 182.628906 20.398438 182.601562 C 20.601562 182.292969 20.761719 182.160156 20.917969 182.03125 C 21.039062 181.933594 21.160156 181.832031 21.351562 181.59375 C 21.4375 181.488281 21.503906 181.394531 21.558594 181.320312 C 21.726562 181.085938 21.949219 180.804688 22.335938 180.808594 C 22.75 180.828125 22.96875 181.171875 23.113281 181.398438 C 23.371094 181.800781 23.484375 182.09375 23.5625 182.289062 C 23.589844 182.359375 23.625 182.4375 23.640625 182.460938 C 23.773438 182.660156 24.859375 182.476562 25.269531 182.40625 C 26.191406 182.253906 26.984375 182.121094 27.3125 182.703125 C 27.546875 183.117188 27.375 183.664062 26.78125 184.375 C 26.59375 184.59375 26.398438 184.761719 26.222656 184.894531 C 26.367188 184.980469 26.496094 185.113281 26.550781 185.320312 C 26.671875 185.8125 26.25 186.304688 25.289062 186.789062 C 25.050781 186.910156 24.730469 187.070312 24.277344 187.148438 C 24.066406 187.183594 23.875 187.195312 23.714844 187.199219 C 23.710938 187.292969 23.6875 187.394531 23.628906 187.5 C 23.460938 187.808594 23.109375 187.957031 22.582031 187.921875 C 22 187.890625 21.519531 187.78125 21.097656 187.683594 C 20.726562 187.597656 20.410156 187.527344 20.160156 187.542969 C 19.695312 187.582031 19.339844 187.949219 18.921875 188.429688 Z M 17.875 189.648438 " fill-opacity="1" fill-rule="nonzero"/><path fill="#f2f2f2" d="M 18.933594 177.546875 L 17.019531 178.285156 L 16.84375 178.222656 C 16.03125 177.9375 15.296875 177.875 14.65625 178.042969 C 14.554688 178.066406 14.453125 178.097656 14.351562 178.132812 C 13.945312 178.257812 13.441406 178.414062 12.773438 178.304688 C 12.402344 178.242188 11.523438 178.023438 11.453125 177.371094 C 11.433594 177.195312 11.476562 177.046875 11.542969 176.925781 C 11.515625 176.917969 11.492188 176.910156 11.460938 176.898438 C 11.109375 176.78125 10.941406 176.660156 10.777344 176.542969 C 10.652344 176.453125 10.523438 176.359375 10.242188 176.234375 C 10.121094 176.179688 10.015625 176.140625 9.925781 176.105469 C 9.65625 176.003906 9.328125 175.859375 9.234375 175.484375 C 9.148438 175.078125 9.425781 174.78125 9.609375 174.585938 C 9.933594 174.234375 10.1875 174.046875 10.355469 173.925781 C 10.417969 173.878906 10.484375 173.828125 10.503906 173.804688 C 10.660156 173.628906 10.207031 172.625 10.039062 172.246094 C 9.65625 171.398438 9.328125 170.660156 9.804688 170.199219 C 10.148438 169.867188 10.722656 169.894531 11.558594 170.289062 C 11.820312 170.414062 12.035156 170.5625 12.207031 170.695312 C 12.253906 170.535156 12.347656 170.375 12.535156 170.273438 C 12.984375 170.027344 13.570312 170.3125 14.28125 171.117188 C 14.457031 171.316406 14.695312 171.585938 14.882812 172 C 14.972656 172.195312 15.03125 172.378906 15.078125 172.535156 C 15.167969 172.511719 15.273438 172.507812 15.390625 172.539062 C 15.730469 172.621094 15.964844 172.921875 16.0625 173.441406 C 16.183594 174.011719 16.195312 174.503906 16.210938 174.9375 C 16.222656 175.316406 16.230469 175.640625 16.3125 175.875 C 16.464844 176.316406 16.914062 176.566406 17.484375 176.847656 Z M 18.933594 177.546875 " fill-opacity="1" fill-rule="nonzero"/><path fill="#f2f2f2" d="M 17.875 171.558594 L 17.648438 169.527344 L 17.75 169.375 C 18.234375 168.660156 18.480469 167.964844 18.480469 167.304688 C 18.484375 167.199219 18.476562 167.09375 18.472656 166.988281 C 18.453125 166.5625 18.429688 166.035156 18.703125 165.421875 C 18.859375 165.078125 19.292969 164.285156 19.945312 164.382812 C 20.121094 164.410156 20.253906 164.488281 20.351562 164.582031 C 20.367188 164.558594 20.382812 164.535156 20.398438 164.511719 C 20.601562 164.203125 20.761719 164.070312 20.917969 163.941406 C 21.039062 163.84375 21.160156 163.742188 21.351562 163.503906 C 21.4375 163.398438 21.503906 163.304688 21.558594 163.230469 C 21.726562 162.992188 21.949219 162.714844 22.335938 162.71875 C 22.75 162.738281 22.96875 163.082031 23.113281 163.308594 C 23.371094 163.710938 23.484375 164.003906 23.5625 164.199219 C 23.589844 164.269531 23.625 164.347656 23.640625 164.371094 C 23.773438 164.566406 24.859375 164.382812 25.269531 164.316406 C 26.191406 164.164062 26.984375 164.03125 27.3125 164.613281 C 27.546875 165.027344 27.375 165.574219 26.78125 166.28125 C 26.59375 166.503906 26.398438 166.671875 26.222656 166.804688 C 26.367188 166.890625 26.496094 167.023438 26.550781 167.230469 C 26.671875 167.722656 26.25 168.214844 25.289062 168.699219 C 25.050781 168.820312 24.730469 168.980469 24.277344 169.058594 C 24.066406 169.09375 23.875 169.105469 23.714844 169.109375 C 23.710938 169.203125 23.6875 169.304688 23.628906 169.410156 C 23.460938 169.71875 23.109375 169.867188 22.582031 169.832031 C 22 169.800781 21.519531 169.691406 21.097656 169.59375 C 20.726562 169.507812 20.410156 169.4375 20.160156 169.453125 C 19.695312 169.492188 19.339844 169.859375 18.921875 170.339844 Z M 17.875 171.558594 " fill-opacity="1" fill-rule="nonzero"/><g clip-path="url(#ac8c865276)"><path fill="#f2f2f2" d="M 19.957031 211.015625 L 19.53125 210.746094 L 19.429688 210.257812 L 19.53125 210.746094 L 19.035156 210.804688 C 19.027344 210.757812 19 210.652344 18.957031 210.488281 C 18.734375 209.578125 18.058594 206.8125 17.492188 202.457031 C 17.09375 199.414062 16.871094 196.289062 16.824219 193.164062 C 16.777344 190.03125 16.925781 187.664062 17.046875 185.757812 C 17.136719 184.320312 17.246094 182.953125 17.351562 181.621094 C 17.636719 178.058594 17.90625 174.695312 17.707031 170.972656 C 17.664062 170.140625 17.570312 168.410156 16.558594 166.570312 C 15.96875 165.5 15.160156 164.554688 14.152344 163.753906 L 14.777344 162.964844 C 15.890625 163.851562 16.789062 164.902344 17.441406 166.085938 C 18.5625 168.128906 18.664062 170.011719 18.714844 170.917969 C 18.917969 174.707031 18.644531 178.105469 18.355469 181.699219 C 18.25 183.027344 18.140625 184.390625 18.050781 185.820312 C 17.933594 187.707031 17.785156 190.058594 17.832031 193.148438 C 17.878906 196.238281 18.097656 199.324219 18.488281 202.328125 C 19.046875 206.628906 19.71875 209.351562 19.9375 210.246094 C 20.054688 210.726562 20.078125 210.824219 19.957031 211.015625 Z M 19.957031 211.015625 " fill-opacity="1" fill-rule="nonzero"/></g><path fill="#f2f2f2" d="M 12.304688 165.347656 C 12.261719 165.347656 12.222656 165.347656 12.179688 165.34375 C 11.320312 165.300781 10.527344 164.789062 9.820312 163.824219 C 9.484375 163.371094 9.316406 162.851562 8.976562 161.820312 C 8.925781 161.664062 8.667969 160.855469 8.511719 159.746094 C 8.410156 159.019531 8.425781 158.71875 8.566406 158.449219 C 8.726562 158.152344 8.988281 157.941406 9.277344 157.800781 C 9.265625 157.707031 9.273438 157.605469 9.316406 157.503906 C 9.488281 157.085938 9.945312 157.140625 10.191406 157.167969 C 10.316406 157.183594 10.472656 157.203125 10.640625 157.195312 C 10.90625 157.183594 11.046875 157.105469 11.261719 156.988281 C 11.46875 156.875 11.726562 156.734375 12.105469 156.65625 C 12.855469 156.5 13.480469 156.710938 13.6875 156.78125 C 14.777344 157.144531 15.316406 157.988281 15.9375 158.96875 C 16.058594 159.164062 16.484375 159.878906 16.765625 160.855469 C 16.96875 161.5625 16.941406 161.878906 16.878906 162.113281 C 16.753906 162.589844 16.464844 162.867188 15.71875 163.472656 C 14.945312 164.109375 14.554688 164.425781 14.21875 164.621094 C 13.441406 165.066406 12.953125 165.347656 12.304688 165.347656 Z M 12.304688 165.347656 " fill-opacity="1" fill-rule="nonzero"/><g clip-path="url(#b517283466)"><path fill="#e6e6e6" d="M 237.3125 210.558594 C 237.3125 210.742188 237.160156 210.894531 236.972656 210.894531 L 3.03125 210.894531 L 3.03125 210.222656 L 236.972656 210.222656 C 237.160156 210.222656 237.3125 210.371094 237.3125 210.558594 Z M 237.3125 210.558594 " fill-opacity="1" fill-rule="nonzero"/></g><path fill="#a0616a" d="M 169.773438 104.066406 C 169.773438 104.066406 157.183594 105.578125 159.308594 95.640625 C 161.429688 85.703125 173.472656 67.347656 173.472656 67.347656 L 180.308594 71.171875 L 172.460938 89.683594 L 175.839844 92.34375 Z M 169.773438 104.066406 " fill-opacity="1" fill-rule="nonzero"/><path fill="#6c63ff" d="M 211.042969 91.96875 L 209.265625 106.53125 L 164.804688 106.316406 L 173.734375 90.824219 Z M 211.042969 91.96875 " fill-opacity="1" fill-rule="nonzero"/><path fill="#a0616a" d="M 185.105469 58.082031 C 185.398438 58.289062 185.652344 58.539062 185.878906 58.832031 C 186.101562 59.125 186.285156 59.453125 186.429688 59.816406 C 186.574219 60.183594 186.679688 60.578125 186.742188 61 C 186.804688 61.425781 186.824219 61.867188 186.800781 62.335938 C 186.777344 62.800781 186.714844 63.28125 186.605469 63.769531 C 186.5 64.261719 186.351562 64.753906 186.164062 65.25 C 185.976562 65.746094 185.753906 66.238281 185.492188 66.71875 C 185.234375 67.203125 184.941406 67.667969 184.617188 68.121094 C 184.292969 68.570312 183.945312 69 183.570312 69.398438 C 183.195312 69.800781 182.804688 70.171875 182.394531 70.507812 C 181.984375 70.84375 181.5625 71.140625 181.132812 71.402344 C 180.703125 71.660156 180.269531 71.875 179.832031 72.046875 C 179.398438 72.21875 178.96875 72.34375 178.546875 72.421875 C 178.125 72.5 177.71875 72.527344 177.324219 72.507812 C 176.933594 72.488281 176.5625 72.417969 176.210938 72.304688 C 175.863281 72.1875 175.542969 72.023438 175.25 71.816406 C 174.960938 71.609375 174.703125 71.359375 174.480469 71.066406 C 174.257812 70.773438 174.074219 70.445312 173.925781 70.078125 C 173.78125 69.714844 173.679688 69.320312 173.617188 68.894531 C 173.554688 68.472656 173.53125 68.027344 173.554688 67.5625 C 173.578125 67.09375 173.644531 66.617188 173.75 66.125 C 173.855469 65.636719 174.003906 65.140625 174.191406 64.644531 C 174.378906 64.148438 174.601562 63.660156 174.863281 63.175781 C 175.125 62.695312 175.414062 62.226562 175.738281 61.777344 C 176.0625 61.324219 176.410156 60.898438 176.785156 60.496094 C 177.160156 60.09375 177.550781 59.726562 177.960938 59.390625 C 178.375 59.050781 178.792969 58.753906 179.226562 58.496094 C 179.65625 58.234375 180.089844 58.019531 180.523438 57.847656 C 180.957031 57.675781 181.386719 57.550781 181.808594 57.476562 C 182.230469 57.398438 182.636719 57.371094 183.03125 57.390625 C 183.425781 57.410156 183.796875 57.476562 184.144531 57.59375 C 184.492188 57.710938 184.8125 57.871094 185.105469 58.082031 Z M 185.105469 58.082031 " fill-opacity="1" fill-rule="nonzero"/><path fill="#3f3d56" d="M 206.765625 210.714844 L 206.765625 147.5 L 209.496094 147.5 L 209.496094 210.714844 Z M 206.765625 210.714844 " fill-opacity="1" fill-rule="nonzero"/><path fill="#3f3d56" d="M 193.664062 210.714844 L 193.664062 147.5 L 196.390625 147.5 L 196.390625 210.714844 Z M 193.664062 210.714844 " fill-opacity="1" fill-rule="nonzero"/><path fill="#e6e6e6" d="M 120.222656 210.714844 L 120.222656 107.71875 L 122.953125 107.71875 L 122.953125 210.714844 Z M 120.222656 210.714844 " fill-opacity="1" fill-rule="nonzero"/><path fill="#3f3d56" d="M 164.179688 210.714844 L 164.179688 147.5 L 166.90625 147.5 L 166.90625 210.714844 Z M 164.179688 210.714844 " fill-opacity="1" fill-rule="nonzero"/><path fill="#3f3d56" d="M 153.730469 210.714844 L 153.730469 147.5 L 156.460938 147.5 L 156.460938 210.714844 Z M 153.730469 210.714844 " fill-opacity="1" fill-rule="nonzero"/><path fill="#3f3d56" d="M 204.308594 146.136719 L 151.589844 146.136719 L 141.476562 160.457031 L 193.933594 163.578125 Z M 204.308594 146.136719 " fill-opacity="1" fill-rule="nonzero"/><path fill="#a0616a" d="M 107.773438 97.152344 L 108.011719 86.769531 L 76.195312 89.214844 L 76.03125 96.25 Z M 107.773438 97.152344 " fill-opacity="1" fill-rule="nonzero"/><path fill="#2f2e41" d="M 86.238281 87.972656 L 84.71875 91.625 L 82.53125 91.695312 C 82.53125 91.695312 85.089844 92.476562 85.800781 97.121094 L 83.703125 97.746094 C 83.703125 97.746094 81.683594 99.625 77.914062 99.445312 L 67.808594 98.597656 L 67.769531 95.082031 L 74.753906 94.277344 C 74.753906 94.277344 76.3125 93.253906 68.605469 89.050781 C 68.605469 89.050781 66.054688 87.496094 68.347656 79.800781 C 68.664062 78.742188 69.617188 77.984375 70.722656 77.960938 C 71.332031 77.945312 71.902344 78.164062 72.132812 78.921875 C 72.710938 80.847656 72.125 82.765625 73.722656 83.964844 C 75.316406 85.167969 86.238281 87.972656 86.238281 87.972656 Z M 86.238281 87.972656 " fill-opacity="1" fill-rule="nonzero"/><path fill="#2f2e41" d="M 200.363281 136.847656 C 200.363281 136.847656 189.386719 155.484375 164.542969 152.125 C 158.632812 151.328125 153.429688 147.820312 150.46875 142.652344 C 144.742188 132.664062 136.042969 115.171875 138.863281 105.269531 L 96.847656 97.265625 L 93.539062 87.082031 L 139.007812 81.1875 C 143.03125 80.664062 146.96875 82.617188 148.984375 86.128906 L 171.136719 124.738281 L 177.738281 125.457031 Z M 200.363281 136.847656 " fill-opacity="1" fill-rule="nonzero"/><path fill="#a0616a" d="M 108.605469 101.402344 L 108.003906 91.035156 L 76.488281 96.023438 L 76.890625 103.050781 Z M 108.605469 101.402344 " fill-opacity="1" fill-rule="nonzero"/><path fill="#2f2e41" d="M 86.398438 93.980469 L 85.175781 97.746094 L 83.003906 97.992188 C 83.003906 97.992188 85.617188 98.566406 86.699219 103.132812 L 84.65625 103.929688 C 84.65625 103.929688 82.796875 105.964844 79.027344 106.085938 L 68.882812 106.054688 L 68.5625 102.550781 L 75.460938 101.1875 C 75.460938 101.1875 76.929688 100.042969 68.910156 96.472656 C 68.910156 96.472656 66.238281 95.125 67.90625 87.273438 C 68.136719 86.195312 69.023438 85.359375 70.125 85.246094 C 70.730469 85.1875 71.320312 85.359375 71.609375 86.09375 C 72.339844 87.964844 71.910156 89.925781 73.597656 90.996094 C 75.285156 92.0625 86.398438 93.980469 86.398438 93.980469 Z M 86.398438 93.980469 " fill-opacity="1" fill-rule="nonzero"/><path fill="#2f2e41" d="M 204.09375 133.535156 C 204.09375 133.535156 194.652344 152.992188 169.621094 151.640625 C 163.664062 151.320312 158.195312 148.238281 154.824219 143.328125 C 148.3125 133.832031 138.234375 117.09375 140.246094 106.996094 L 97.722656 102.394531 L 93.601562 92.507812 L 138.449219 82.980469 C 142.417969 82.136719 146.5 83.769531 148.792969 87.109375 L 173.984375 123.8125 L 180.625 124 Z M 204.09375 133.535156 " fill-opacity="1" fill-rule="nonzero"/><path fill="#3f3d56" d="M 175.316406 51.371094 L 173.132812 53.007812 L 184.597656 68.808594 L 186.78125 68.265625 Z M 175.316406 51.371094 " fill-opacity="1" fill-rule="nonzero"/><path fill="#6c63ff" d="M 205.128906 86.464844 L 217.6875 85.921875 L 223.148438 110.445312 C 223.148438 110.445312 211.679688 153.496094 198.03125 151.859375 C 198.03125 151.859375 189.566406 145.59375 189.566406 143.414062 C 189.566406 141.234375 178.101562 135.785156 178.101562 135.785156 L 175.371094 126.519531 L 183.5625 113.984375 C 183.5625 113.984375 186.835938 104.175781 197.757812 98.726562 Z M 205.128906 86.464844 " fill-opacity="1" fill-rule="nonzero"/><path fill="#e6e6e6" d="M 133.328125 105.539062 L 21.667969 105.539062 L 21.667969 108.265625 L 76.269531 108.265625 L 76.269531 210.714844 L 79 210.714844 L 79 108.265625 L 133.328125 108.265625 Z M 133.328125 105.539062 " fill-opacity="1" fill-rule="nonzero"/><path fill="#a0616a" d="M 226.421875 69.570312 C 226.421875 70.539062 226.328125 71.496094 226.140625 72.441406 C 225.949219 73.390625 225.671875 74.308594 225.300781 75.203125 C 224.929688 76.09375 224.476562 76.941406 223.9375 77.746094 C 223.398438 78.550781 222.789062 79.292969 222.105469 79.976562 C 221.421875 80.660156 220.675781 81.269531 219.871094 81.804688 C 219.066406 82.34375 218.214844 82.796875 217.320312 83.164062 C 216.429688 83.535156 215.507812 83.816406 214.554688 84.003906 C 213.605469 84.191406 212.648438 84.285156 211.679688 84.285156 C 210.710938 84.285156 209.753906 84.191406 208.804688 84.003906 C 207.855469 83.816406 206.933594 83.535156 206.039062 83.164062 C 205.144531 82.796875 204.296875 82.34375 203.492188 81.804688 C 202.683594 81.269531 201.941406 80.660156 201.257812 79.976562 C 200.570312 79.292969 199.960938 78.550781 199.421875 77.746094 C 198.886719 76.941406 198.429688 76.09375 198.0625 75.203125 C 197.691406 74.308594 197.410156 73.390625 197.222656 72.441406 C 197.03125 71.496094 196.9375 70.539062 196.9375 69.570312 C 196.9375 68.605469 197.03125 67.648438 197.222656 66.703125 C 197.410156 65.753906 197.691406 64.832031 198.0625 63.941406 C 198.429688 63.046875 198.886719 62.199219 199.421875 61.398438 C 199.960938 60.59375 200.570312 59.851562 201.257812 59.167969 C 201.941406 58.484375 202.683594 57.875 203.492188 57.339844 C 204.296875 56.800781 205.144531 56.347656 206.039062 55.976562 C 206.933594 55.609375 207.855469 55.328125 208.804688 55.140625 C 209.753906 54.953125 210.710938 54.859375 211.679688 54.859375 C 212.648438 54.859375 213.605469 54.953125 214.554688 55.140625 C 215.507812 55.328125 216.429688 55.609375 217.320312 55.976562 C 218.214844 56.347656 219.066406 56.800781 219.871094 57.339844 C 220.675781 57.875 221.421875 58.484375 222.105469 59.167969 C 222.789062 59.851562 223.398438 60.59375 223.9375 61.398438 C 224.476562 62.199219 224.929688 63.046875 225.300781 63.941406 C 225.671875 64.832031 225.949219 65.753906 226.140625 66.703125 C 226.328125 67.648438 226.421875 68.605469 226.421875 69.570312 Z M 226.421875 69.570312 " fill-opacity="1" fill-rule="nonzero"/><path fill="#e6e6e6" d="M 160.277344 88.371094 L 149.980469 92.460938 L 170.183594 119.164062 L 177.28125 113.714844 Z M 160.277344 88.371094 " fill-opacity="1" fill-rule="nonzero"/><path fill="#a0616a" d="M 200.488281 139.597656 C 200.488281 139.597656 196.664062 151.667969 188.476562 145.632812 C 180.285156 139.597656 168.511719 121.070312 168.511719 121.070312 L 174.824219 116.4375 L 188.476562 131.214844 L 192.296875 129.246094 Z M 200.488281 139.597656 " fill-opacity="1" fill-rule="nonzero"/><path fill="#6c63ff" d="M 206.492188 97.09375 L 219.050781 104.722656 L 200.488281 145.046875 L 188.476562 128.699219 Z M 206.492188 97.09375 " fill-opacity="1" fill-rule="nonzero"/><path fill="#a0616a" d="M 173.820312 111.261719 C 174.097656 111.742188 174.34375 112.234375 174.554688 112.742188 C 174.765625 113.246094 174.941406 113.757812 175.078125 114.269531 C 175.21875 114.78125 175.316406 115.285156 175.375 115.785156 C 175.433594 116.285156 175.449219 116.765625 175.425781 117.230469 C 175.40625 117.699219 175.339844 118.140625 175.238281 118.554688 C 175.132812 118.96875 174.992188 119.351562 174.8125 119.703125 C 174.628906 120.050781 174.414062 120.359375 174.164062 120.628906 C 173.914062 120.898438 173.632812 121.121094 173.324219 121.300781 C 173.011719 121.480469 172.679688 121.609375 172.320312 121.691406 C 171.960938 121.773438 171.585938 121.804688 171.191406 121.789062 C 170.796875 121.769531 170.394531 121.699219 169.984375 121.582031 C 169.570312 121.464844 169.15625 121.296875 168.742188 121.085938 C 168.324219 120.871094 167.914062 120.617188 167.511719 120.316406 C 167.109375 120.015625 166.71875 119.679688 166.34375 119.304688 C 165.96875 118.925781 165.613281 118.523438 165.28125 118.085938 C 164.945312 117.648438 164.640625 117.191406 164.363281 116.710938 C 164.085938 116.230469 163.839844 115.738281 163.628906 115.230469 C 163.417969 114.726562 163.242188 114.214844 163.105469 113.703125 C 162.964844 113.191406 162.867188 112.6875 162.808594 112.1875 C 162.75 111.6875 162.734375 111.207031 162.757812 110.738281 C 162.777344 110.273438 162.84375 109.832031 162.945312 109.417969 C 163.050781 109 163.191406 108.621094 163.371094 108.269531 C 163.554688 107.921875 163.769531 107.613281 164.019531 107.34375 C 164.269531 107.074219 164.550781 106.851562 164.859375 106.671875 C 165.171875 106.492188 165.503906 106.363281 165.863281 106.28125 C 166.222656 106.199219 166.597656 106.167969 166.992188 106.183594 C 167.386719 106.203125 167.789062 106.273438 168.199219 106.390625 C 168.613281 106.507812 169.027344 106.671875 169.441406 106.886719 C 169.859375 107.101562 170.269531 107.355469 170.671875 107.65625 C 171.074219 107.957031 171.464844 108.292969 171.839844 108.667969 C 172.214844 109.042969 172.570312 109.449219 172.902344 109.886719 C 173.238281 110.324219 173.542969 110.78125 173.820312 111.261719 Z M 173.820312 111.261719 " fill-opacity="1" fill-rule="nonzero"/><path fill="#3f3d56" d="M 213.292969 114.121094 C 217.078125 101.742188 221.136719 97.824219 225.40625 100.277344 C 228.65625 102.144531 229.632812 106.394531 227.726562 109.617188 C 222.875 117.832031 212.875 136.660156 214.957031 149.136719 C 214.957031 149.136719 218.234375 166.574219 192.023438 166.574219 C 165.816406 166.574219 140.699219 160.582031 140.699219 160.582031 L 154.351562 158.398438 L 185.390625 160.613281 C 192.484375 161.117188 198.460938 155.0625 197.515625 148.027344 C 197.484375 147.796875 197.445312 147.5625 197.402344 147.324219 C 195.847656 138.78125 213.292969 114.121094 213.292969 114.121094 Z M 213.292969 114.121094 " fill-opacity="1" fill-rule="nonzero"/><g clip-path="url(#cd8b9f7b48)"><path fill="#2f2e41" d="M 206.15625 63.472656 C 204.949219 66.835938 207.597656 70.332031 211.167969 70.09375 L 211.253906 70.089844 C 213.65625 73.085938 213.722656 77.324219 211.417969 80.394531 C 211.226562 84.351562 211.847656 88.304688 213.242188 92.011719 L 217.15625 102.433594 L 223.183594 99.625 L 226.042969 107.246094 L 242.871094 98.59375 L 232.671875 75.6875 L 229.5625 63.261719 C 227.347656 54.421875 218.3125 49.097656 209.488281 51.4375 L 202.714844 53.234375 C 197.367188 54.652344 194.289062 60.242188 195.957031 65.507812 L 206.15625 63.472656 " fill-opacity="1" fill-rule="nonzero"/></g><g clip-path="url(#8a41360734)"><path stroke-linecap="butt" transform="matrix(0.74963, 0, 0, 0.74963, -0.000000000000085223, 30.652467)" fill="none" stroke-linejoin="miter" d="M 0.000000000000113687 2.000824 L 323.998568 2.000824 " stroke="#ffffff" stroke-width="4" stroke-opacity="1" stroke-miterlimit="4"/></g><g fill="#ffffff" fill-opacity="1"><g transform="translate(67.41981, 23.683983)"><g><path d="M 6.0625 0.390625 C 5.320312 0.390625 4.554688 0.320312 3.765625 0.1875 C 2.984375 0.0507812 2.128906 -0.164062 1.203125 -0.46875 C 0.941406 -0.570312 0.859375 -0.75 0.953125 -1 L 1.703125 -3.171875 C 1.785156 -3.410156 1.957031 -3.488281 2.21875 -3.40625 C 2.90625 -3.132812 3.582031 -2.925781 4.25 -2.78125 C 4.914062 -2.632812 5.515625 -2.5625 6.046875 -2.5625 C 6.671875 -2.5625 7.171875 -2.671875 7.546875 -2.890625 C 7.929688 -3.117188 8.125 -3.460938 8.125 -3.921875 C 8.125 -4.210938 8.019531 -4.472656 7.8125 -4.703125 C 7.613281 -4.941406 7.335938 -5.164062 6.984375 -5.375 C 6.640625 -5.582031 6.25 -5.789062 5.8125 -6 C 5.375 -6.207031 4.925781 -6.429688 4.46875 -6.671875 C 4.019531 -6.910156 3.585938 -7.164062 3.171875 -7.4375 C 2.765625 -7.71875 2.398438 -8.035156 2.078125 -8.390625 C 1.765625 -8.742188 1.515625 -9.148438 1.328125 -9.609375 C 1.148438 -10.066406 1.0625 -10.59375 1.0625 -11.1875 C 1.0625 -11.976562 1.203125 -12.648438 1.484375 -13.203125 C 1.773438 -13.753906 2.164062 -14.203125 2.65625 -14.546875 C 3.15625 -14.898438 3.71875 -15.15625 4.34375 -15.3125 C 4.976562 -15.476562 5.628906 -15.5625 6.296875 -15.5625 C 6.691406 -15.5625 7.125 -15.53125 7.59375 -15.46875 C 8.0625 -15.414062 8.535156 -15.332031 9.015625 -15.21875 C 9.492188 -15.101562 9.957031 -14.96875 10.40625 -14.8125 C 10.664062 -14.726562 10.75 -14.554688 10.65625 -14.296875 L 10.015625 -12.234375 C 9.921875 -11.972656 9.75 -11.890625 9.5 -11.984375 C 9 -12.179688 8.472656 -12.332031 7.921875 -12.4375 C 7.378906 -12.550781 6.875 -12.609375 6.40625 -12.609375 C 6.0625 -12.609375 5.75 -12.570312 5.46875 -12.5 C 5.1875 -12.425781 4.960938 -12.300781 4.796875 -12.125 C 4.640625 -11.957031 4.5625 -11.726562 4.5625 -11.4375 C 4.5625 -11.164062 4.644531 -10.921875 4.8125 -10.703125 C 4.976562 -10.484375 5.207031 -10.28125 5.5 -10.09375 C 5.789062 -9.90625 6.128906 -9.71875 6.515625 -9.53125 C 6.910156 -9.34375 7.328125 -9.144531 7.765625 -8.9375 C 8.222656 -8.707031 8.679688 -8.453125 9.140625 -8.171875 C 9.597656 -7.890625 10.015625 -7.5625 10.390625 -7.1875 C 10.773438 -6.820312 11.082031 -6.382812 11.3125 -5.875 C 11.539062 -5.363281 11.65625 -4.765625 11.65625 -4.078125 C 11.65625 -3.421875 11.550781 -2.84375 11.34375 -2.34375 C 11.132812 -1.851562 10.847656 -1.429688 10.484375 -1.078125 C 10.117188 -0.734375 9.695312 -0.453125 9.21875 -0.234375 C 8.75 -0.015625 8.242188 0.140625 7.703125 0.234375 C 7.160156 0.335938 6.613281 0.390625 6.0625 0.390625 Z M 6.0625 0.390625 "/></g></g><g transform="translate(79.891918, 23.683983)"><g><path d="M 2.9375 -11.765625 C 2.601562 -11.765625 2.296875 -11.84375 2.015625 -12 C 1.742188 -12.15625 1.53125 -12.367188 1.375 -12.640625 C 1.21875 -12.921875 1.140625 -13.234375 1.140625 -13.578125 C 1.140625 -13.910156 1.21875 -14.210938 1.375 -14.484375 C 1.53125 -14.765625 1.742188 -14.984375 2.015625 -15.140625 C 2.296875 -15.304688 2.601562 -15.390625 2.9375 -15.390625 C 3.28125 -15.390625 3.585938 -15.304688 3.859375 -15.140625 C 4.128906 -14.984375 4.34375 -14.765625 4.5 -14.484375 C 4.664062 -14.210938 4.75 -13.910156 4.75 -13.578125 C 4.75 -13.234375 4.664062 -12.921875 4.5 -12.640625 C 4.34375 -12.367188 4.128906 -12.15625 3.859375 -12 C 3.585938 -11.84375 3.28125 -11.765625 2.9375 -11.765625 Z M 4.125 0 L 1.78125 0 C 1.507812 0 1.375 -0.132812 1.375 -0.40625 L 1.375 -10.5625 C 1.375 -10.832031 1.507812 -10.96875 1.78125 -10.96875 L 4.125 -10.96875 C 4.394531 -10.96875 4.53125 -10.832031 4.53125 -10.5625 L 4.53125 -0.40625 C 4.53125 -0.132812 4.394531 0 4.125 0 Z M 4.125 0 "/></g></g><g transform="translate(85.821605, 23.683983)"><g><path d="M 14.34375 -11.203125 C 14.957031 -11.203125 15.507812 -11.09375 16 -10.875 C 16.488281 -10.664062 16.90625 -10.367188 17.25 -9.984375 C 17.59375 -9.609375 17.851562 -9.160156 18.03125 -8.640625 C 18.207031 -8.128906 18.296875 -7.570312 18.296875 -6.96875 L 18.296875 -0.40625 C 18.296875 -0.132812 18.160156 0 17.890625 0 L 15.546875 0 C 15.273438 0 15.140625 -0.132812 15.140625 -0.40625 L 15.140625 -6.3125 C 15.140625 -6.75 15.082031 -7.132812 14.96875 -7.46875 C 14.851562 -7.800781 14.664062 -8.0625 14.40625 -8.25 C 14.144531 -8.4375 13.804688 -8.53125 13.390625 -8.53125 C 12.742188 -8.53125 12.253906 -8.328125 11.921875 -7.921875 C 11.597656 -7.515625 11.4375 -6.988281 11.4375 -6.34375 L 11.4375 -0.40625 C 11.4375 -0.132812 11.300781 0 11.03125 0 L 8.6875 0 C 8.414062 0 8.28125 -0.132812 8.28125 -0.40625 L 8.28125 -6.3125 C 8.28125 -6.75 8.222656 -7.132812 8.109375 -7.46875 C 7.992188 -7.800781 7.804688 -8.0625 7.546875 -8.25 C 7.285156 -8.4375 6.9375 -8.53125 6.5 -8.53125 C 5.84375 -8.53125 5.347656 -8.328125 5.015625 -7.921875 C 4.691406 -7.515625 4.53125 -6.988281 4.53125 -6.34375 L 4.53125 -0.40625 C 4.53125 -0.132812 4.394531 0 4.125 0 L 1.78125 0 C 1.507812 0 1.375 -0.132812 1.375 -0.40625 L 1.375 -10.5625 C 1.375 -10.832031 1.507812 -10.96875 1.78125 -10.96875 L 3.3125 -10.96875 C 3.53125 -10.96875 3.675781 -10.851562 3.75 -10.625 L 4.046875 -9.703125 C 4.648438 -10.273438 5.238281 -10.664062 5.8125 -10.875 C 6.382812 -11.09375 6.945312 -11.203125 7.5 -11.203125 C 8.125 -11.203125 8.707031 -11.050781 9.25 -10.75 C 9.800781 -10.457031 10.234375 -10.035156 10.546875 -9.484375 C 10.847656 -9.859375 11.203125 -10.171875 11.609375 -10.421875 C 12.023438 -10.679688 12.46875 -10.875 12.9375 -11 C 13.40625 -11.132812 13.875 -11.203125 14.34375 -11.203125 Z M 14.34375 -11.203125 "/></g></g><g transform="translate(105.389572, 23.683983)"><g><path d="M 6.265625 0.234375 C 5.253906 0.234375 4.367188 0.0390625 3.609375 -0.34375 C 2.847656 -0.726562 2.253906 -1.285156 1.828125 -2.015625 C 1.410156 -2.742188 1.203125 -3.617188 1.203125 -4.640625 L 1.203125 -10.5625 C 1.203125 -10.832031 1.332031 -10.96875 1.59375 -10.96875 L 3.9375 -10.96875 C 4.207031 -10.96875 4.34375 -10.832031 4.34375 -10.5625 L 4.34375 -4.75 C 4.34375 -4.101562 4.503906 -3.578125 4.828125 -3.171875 C 5.148438 -2.773438 5.628906 -2.578125 6.265625 -2.578125 C 6.703125 -2.578125 7.0625 -2.675781 7.34375 -2.875 C 7.625 -3.070312 7.832031 -3.332031 7.96875 -3.65625 C 8.113281 -3.988281 8.1875 -4.351562 8.1875 -4.75 L 8.1875 -10.5625 C 8.1875 -10.832031 8.316406 -10.96875 8.578125 -10.96875 L 10.921875 -10.96875 C 11.191406 -10.96875 11.328125 -10.832031 11.328125 -10.5625 L 11.328125 -4.640625 C 11.328125 -3.617188 11.113281 -2.742188 10.6875 -2.015625 C 10.269531 -1.285156 9.679688 -0.726562 8.921875 -0.34375 C 8.160156 0.0390625 7.273438 0.234375 6.265625 0.234375 Z M 6.265625 0.234375 "/></g></g><g transform="translate(117.940743, 23.683983)"><g><path d="M 5.0625 0.234375 C 4.3125 0.234375 3.648438 0.109375 3.078125 -0.140625 C 2.515625 -0.398438 2.070312 -0.773438 1.75 -1.265625 C 1.4375 -1.765625 1.28125 -2.378906 1.28125 -3.109375 L 1.28125 -14.765625 C 1.28125 -15.035156 1.414062 -15.171875 1.6875 -15.171875 L 4.03125 -15.171875 C 4.300781 -15.171875 4.4375 -15.035156 4.4375 -14.765625 L 4.4375 -3.34375 C 4.4375 -2.988281 4.53125 -2.726562 4.71875 -2.5625 C 4.90625 -2.40625 5.148438 -2.328125 5.453125 -2.328125 C 5.554688 -2.328125 5.664062 -2.332031 5.78125 -2.34375 C 5.894531 -2.363281 6.015625 -2.390625 6.140625 -2.421875 C 6.410156 -2.492188 6.582031 -2.40625 6.65625 -2.15625 L 7.078125 -0.5 C 7.117188 -0.375 7.113281 -0.265625 7.0625 -0.171875 C 7.019531 -0.078125 6.9375 -0.015625 6.8125 0.015625 C 6.5 0.0976562 6.195312 0.15625 5.90625 0.1875 C 5.613281 0.21875 5.332031 0.234375 5.0625 0.234375 Z M 5.0625 0.234375 "/></g></g><g transform="translate(125.530743, 23.683983)"><g><path d="M 5.5625 -11.203125 C 6.226562 -11.203125 6.859375 -11.128906 7.453125 -10.984375 C 8.046875 -10.835938 8.570312 -10.597656 9.03125 -10.265625 C 9.488281 -9.941406 9.847656 -9.515625 10.109375 -8.984375 C 10.367188 -8.453125 10.5 -7.804688 10.5 -7.046875 L 10.5 -0.40625 C 10.5 -0.132812 10.363281 0 10.09375 0 L 8.5625 0 C 8.320312 0 8.175781 -0.113281 8.125 -0.34375 L 7.828125 -1.265625 C 7.546875 -0.898438 7.226562 -0.601562 6.875 -0.375 C 6.53125 -0.15625 6.164062 0 5.78125 0.09375 C 5.394531 0.1875 5.015625 0.234375 4.640625 0.234375 C 4.148438 0.234375 3.679688 0.160156 3.234375 0.015625 C 2.785156 -0.128906 2.382812 -0.34375 2.03125 -0.625 C 1.6875 -0.914062 1.410156 -1.273438 1.203125 -1.703125 C 1.003906 -2.128906 0.90625 -2.628906 0.90625 -3.203125 C 0.90625 -3.785156 1.015625 -4.296875 1.234375 -4.734375 C 1.453125 -5.171875 1.757812 -5.535156 2.15625 -5.828125 C 2.550781 -6.117188 3.007812 -6.335938 3.53125 -6.484375 C 4.050781 -6.628906 4.609375 -6.703125 5.203125 -6.703125 C 5.546875 -6.703125 5.894531 -6.675781 6.25 -6.625 C 6.613281 -6.582031 6.976562 -6.507812 7.34375 -6.40625 L 7.34375 -6.953125 C 7.34375 -7.378906 7.253906 -7.71875 7.078125 -7.96875 C 6.898438 -8.21875 6.65625 -8.394531 6.34375 -8.5 C 6.039062 -8.613281 5.691406 -8.671875 5.296875 -8.671875 C 4.878906 -8.671875 4.4375 -8.617188 3.96875 -8.515625 C 3.5 -8.410156 3.035156 -8.265625 2.578125 -8.078125 C 2.453125 -8.035156 2.34375 -8.03125 2.25 -8.0625 C 2.15625 -8.101562 2.09375 -8.1875 2.0625 -8.3125 L 1.484375 -10.0625 C 1.421875 -10.3125 1.515625 -10.484375 1.765625 -10.578125 C 2.367188 -10.773438 3 -10.925781 3.65625 -11.03125 C 4.3125 -11.144531 4.945312 -11.203125 5.5625 -11.203125 Z M 5.5 -1.953125 C 5.695312 -1.953125 5.898438 -1.984375 6.109375 -2.046875 C 6.328125 -2.117188 6.53125 -2.226562 6.71875 -2.375 C 6.90625 -2.53125 7.054688 -2.734375 7.171875 -2.984375 C 7.285156 -3.234375 7.34375 -3.539062 7.34375 -3.90625 L 7.34375 -4.4375 C 7.113281 -4.488281 6.882812 -4.53125 6.65625 -4.5625 C 6.425781 -4.59375 6.203125 -4.609375 5.984375 -4.609375 C 5.628906 -4.609375 5.304688 -4.5625 5.015625 -4.46875 C 4.722656 -4.382812 4.488281 -4.238281 4.3125 -4.03125 C 4.132812 -3.832031 4.046875 -3.566406 4.046875 -3.234375 C 4.046875 -2.941406 4.113281 -2.695312 4.25 -2.5 C 4.382812 -2.3125 4.5625 -2.171875 4.78125 -2.078125 C 5.007812 -1.992188 5.25 -1.953125 5.5 -1.953125 Z M 5.5 -1.953125 "/></g></g><g transform="translate(137.301171, 23.683983)"><g><path d="M 13.015625 -14.765625 L 13.046875 -0.40625 C 13.046875 -0.132812 12.910156 0 12.640625 0 L 11.109375 0 C 10.890625 0 10.738281 -0.113281 10.65625 -0.34375 L 10.3125 -1.46875 C 9.832031 -0.925781 9.253906 -0.503906 8.578125 -0.203125 C 7.898438 0.0859375 7.164062 0.234375 6.375 0.234375 C 5.59375 0.234375 4.863281 0.0859375 4.1875 -0.203125 C 3.519531 -0.503906 2.941406 -0.914062 2.453125 -1.4375 C 1.960938 -1.96875 1.582031 -2.578125 1.3125 -3.265625 C 1.039062 -3.953125 0.90625 -4.691406 0.90625 -5.484375 C 0.90625 -6.273438 1.039062 -7.015625 1.3125 -7.703125 C 1.582031 -8.390625 1.960938 -8.992188 2.453125 -9.515625 C 2.941406 -10.046875 3.519531 -10.457031 4.1875 -10.75 C 4.863281 -11.050781 5.59375 -11.203125 6.375 -11.203125 C 7.019531 -11.203125 7.644531 -11.09375 8.25 -10.875 C 8.851562 -10.65625 9.394531 -10.351562 9.875 -9.96875 L 9.859375 -14.765625 C 9.859375 -15.035156 9.992188 -15.171875 10.265625 -15.171875 L 12.609375 -15.171875 C 12.878906 -15.171875 13.015625 -15.035156 13.015625 -14.765625 Z M 7.03125 -2.5 C 7.445312 -2.5 7.832031 -2.578125 8.1875 -2.734375 C 8.550781 -2.890625 8.867188 -3.101562 9.140625 -3.375 C 9.410156 -3.644531 9.625 -3.957031 9.78125 -4.3125 C 9.9375 -4.675781 10.015625 -5.066406 10.015625 -5.484375 C 10.015625 -5.898438 9.9375 -6.285156 9.78125 -6.640625 C 9.625 -7.003906 9.410156 -7.320312 9.140625 -7.59375 C 8.867188 -7.863281 8.550781 -8.078125 8.1875 -8.234375 C 7.832031 -8.390625 7.445312 -8.46875 7.03125 -8.46875 C 6.613281 -8.46875 6.222656 -8.390625 5.859375 -8.234375 C 5.503906 -8.078125 5.191406 -7.863281 4.921875 -7.59375 C 4.648438 -7.320312 4.4375 -7.003906 4.28125 -6.640625 C 4.125 -6.285156 4.046875 -5.898438 4.046875 -5.484375 C 4.046875 -5.066406 4.125 -4.675781 4.28125 -4.3125 C 4.4375 -3.957031 4.648438 -3.644531 4.921875 -3.375 C 5.191406 -3.101562 5.503906 -2.890625 5.859375 -2.734375 C 6.222656 -2.578125 6.613281 -2.5 7.03125 -2.5 Z M 7.03125 -2.5 "/></g></g><g transform="translate(151.720194, 23.683983)"><g><path d="M 6.8125 0.234375 C 5.957031 0.234375 5.164062 0.09375 4.4375 -0.1875 C 3.71875 -0.46875 3.09375 -0.863281 2.5625 -1.375 C 2.03125 -1.882812 1.613281 -2.488281 1.3125 -3.1875 C 1.019531 -3.882812 0.875 -4.648438 0.875 -5.484375 C 0.875 -6.316406 1.019531 -7.082031 1.3125 -7.78125 C 1.613281 -8.476562 2.03125 -9.082031 2.5625 -9.59375 C 3.09375 -10.101562 3.71875 -10.5 4.4375 -10.78125 C 5.164062 -11.0625 5.957031 -11.203125 6.8125 -11.203125 C 7.6875 -11.203125 8.488281 -11.0625 9.21875 -10.78125 C 9.945312 -10.5 10.578125 -10.101562 11.109375 -9.59375 C 11.648438 -9.082031 12.066406 -8.476562 12.359375 -7.78125 C 12.648438 -7.082031 12.796875 -6.316406 12.796875 -5.484375 C 12.796875 -4.648438 12.648438 -3.882812 12.359375 -3.1875 C 12.066406 -2.488281 11.648438 -1.882812 11.109375 -1.375 C 10.578125 -0.863281 9.945312 -0.46875 9.21875 -0.1875 C 8.488281 0.09375 7.6875 0.234375 6.8125 0.234375 Z M 6.8125 -2.5 C 7.394531 -2.5 7.898438 -2.628906 8.328125 -2.890625 C 8.753906 -3.160156 9.082031 -3.519531 9.3125 -3.96875 C 9.539062 -4.414062 9.65625 -4.921875 9.65625 -5.484375 C 9.65625 -6.046875 9.539062 -6.550781 9.3125 -7 C 9.082031 -7.457031 8.753906 -7.816406 8.328125 -8.078125 C 7.898438 -8.335938 7.394531 -8.46875 6.8125 -8.46875 C 6.257812 -8.46875 5.769531 -8.335938 5.34375 -8.078125 C 4.925781 -7.816406 4.597656 -7.457031 4.359375 -7 C 4.128906 -6.550781 4.015625 -6.046875 4.015625 -5.484375 C 4.015625 -4.921875 4.128906 -4.414062 4.359375 -3.96875 C 4.597656 -3.519531 4.925781 -3.160156 5.34375 -2.890625 C 5.769531 -2.628906 6.257812 -2.5 6.8125 -2.5 Z M 6.8125 -2.5 "/></g></g><g transform="translate(165.398005, 23.683983)"><g><path d="M 4.75 0.234375 C 4.226562 0.234375 3.6875 0.191406 3.125 0.109375 C 2.570312 0.0351562 1.984375 -0.078125 1.359375 -0.234375 C 1.210938 -0.265625 1.117188 -0.328125 1.078125 -0.421875 C 1.035156 -0.515625 1.035156 -0.617188 1.078125 -0.734375 L 1.640625 -2.4375 C 1.722656 -2.664062 1.894531 -2.742188 2.15625 -2.671875 C 2.625 -2.523438 3.085938 -2.40625 3.546875 -2.3125 C 4.003906 -2.226562 4.414062 -2.1875 4.78125 -2.1875 C 5.144531 -2.1875 5.441406 -2.242188 5.671875 -2.359375 C 5.910156 -2.484375 6.03125 -2.695312 6.03125 -3 C 6.03125 -3.15625 5.953125 -3.296875 5.796875 -3.421875 C 5.640625 -3.546875 5.425781 -3.671875 5.15625 -3.796875 C 4.894531 -3.921875 4.601562 -4.050781 4.28125 -4.1875 C 3.957031 -4.320312 3.632812 -4.472656 3.3125 -4.640625 C 2.914062 -4.847656 2.539062 -5.085938 2.1875 -5.359375 C 1.832031 -5.640625 1.539062 -5.96875 1.3125 -6.34375 C 1.09375 -6.71875 0.984375 -7.164062 0.984375 -7.6875 C 0.984375 -8.320312 1.097656 -8.859375 1.328125 -9.296875 C 1.554688 -9.742188 1.863281 -10.109375 2.25 -10.390625 C 2.644531 -10.671875 3.085938 -10.875 3.578125 -11 C 4.078125 -11.132812 4.585938 -11.203125 5.109375 -11.203125 C 5.554688 -11.203125 6.050781 -11.160156 6.59375 -11.078125 C 7.144531 -10.992188 7.691406 -10.863281 8.234375 -10.6875 C 8.335938 -10.65625 8.414062 -10.597656 8.46875 -10.515625 C 8.53125 -10.429688 8.535156 -10.328125 8.484375 -10.203125 L 7.984375 -8.484375 C 7.953125 -8.359375 7.890625 -8.269531 7.796875 -8.21875 C 7.703125 -8.175781 7.59375 -8.175781 7.46875 -8.21875 C 7.050781 -8.363281 6.628906 -8.484375 6.203125 -8.578125 C 5.785156 -8.671875 5.414062 -8.71875 5.09375 -8.71875 C 4.789062 -8.71875 4.546875 -8.664062 4.359375 -8.5625 C 4.179688 -8.46875 4.09375 -8.3125 4.09375 -8.09375 C 4.09375 -7.882812 4.203125 -7.695312 4.421875 -7.53125 C 4.648438 -7.375 4.945312 -7.222656 5.3125 -7.078125 C 5.675781 -6.929688 6.0625 -6.769531 6.46875 -6.59375 C 6.800781 -6.445312 7.125 -6.28125 7.4375 -6.09375 C 7.757812 -5.90625 8.050781 -5.679688 8.3125 -5.421875 C 8.582031 -5.160156 8.796875 -4.859375 8.953125 -4.515625 C 9.109375 -4.179688 9.1875 -3.78125 9.1875 -3.3125 C 9.1875 -2.632812 9.054688 -2.066406 8.796875 -1.609375 C 8.546875 -1.148438 8.207031 -0.785156 7.78125 -0.515625 C 7.351562 -0.242188 6.875 -0.0507812 6.34375 0.0625 C 5.8125 0.175781 5.28125 0.234375 4.75 0.234375 Z M 4.75 0.234375 "/></g></g></g></svg>